<mxfile host="Electron" modified="2024-04-28T14:24:23.905Z" agent="Mozilla/5.0 (Windows NT 10.0; Win64; x64) AppleWebKit/537.36 (KHTML, like Gecko) draw.io/24.2.5 Chrome/120.0.6099.109 Electron/28.1.0 Safari/537.36" etag="Dv56Q4LWd2Oi7ydGP2Ry" version="24.2.5" type="device">
  <diagram name="Page-1" id="MiQzk10vNrqOOf2ks-P5">
    <mxGraphModel dx="548" dy="358" grid="1" gridSize="10" guides="1" tooltips="1" connect="1" arrows="1" fold="1" page="1" pageScale="1" pageWidth="850" pageHeight="1100" math="0" shadow="0">
      <root>
        <mxCell id="0" />
        <mxCell id="1" parent="0" />
        <mxCell id="U1PvnMOJRJwNP_DTGCY5-3" style="edgeStyle=orthogonalEdgeStyle;rounded=0;orthogonalLoop=1;jettySize=auto;html=1;entryX=0;entryY=0.5;entryDx=0;entryDy=0;strokeColor=none;" parent="1" edge="1">
          <mxGeometry relative="1" as="geometry">
            <mxPoint x="80" y="180" as="sourcePoint" />
            <mxPoint x="110" y="300" as="targetPoint" />
          </mxGeometry>
        </mxCell>
        <mxCell id="U1PvnMOJRJwNP_DTGCY5-7" style="rounded=0;orthogonalLoop=1;jettySize=auto;html=1;exitX=0.7;exitY=-0.029;exitDx=0;exitDy=0;exitPerimeter=0;fillColor=#a20025;strokeColor=#6F0000;" parent="1" source="U1PvnMOJRJwNP_DTGCY5-63" target="U1PvnMOJRJwNP_DTGCY5-64" edge="1">
          <mxGeometry relative="1" as="geometry">
            <mxPoint x="137.69230769230774" y="281.53846153846143" as="sourcePoint" />
            <mxPoint x="180" y="180" as="targetPoint" />
          </mxGeometry>
        </mxCell>
        <mxCell id="U1PvnMOJRJwNP_DTGCY5-4" value="" style="endArrow=classic;html=1;rounded=0;exitX=0.706;exitY=0.957;exitDx=0;exitDy=0;exitPerimeter=0;entryX=0.242;entryY=0.079;entryDx=0;entryDy=0;entryPerimeter=0;fillColor=#a20025;strokeColor=#6F0000;" parent="1" source="U1PvnMOJRJwNP_DTGCY5-60" target="U1PvnMOJRJwNP_DTGCY5-63" edge="1">
          <mxGeometry width="50" height="50" relative="1" as="geometry">
            <mxPoint x="73.24000000000001" y="199.44000000000005" as="sourcePoint" />
            <mxPoint x="119.6358331879511" y="282.8949116841794" as="targetPoint" />
          </mxGeometry>
        </mxCell>
        <mxCell id="U1PvnMOJRJwNP_DTGCY5-12" style="rounded=0;orthogonalLoop=1;jettySize=auto;html=1;exitX=0.8;exitY=-0.048;exitDx=0;exitDy=0;exitPerimeter=0;" parent="1" source="U1PvnMOJRJwNP_DTGCY5-64" target="U1PvnMOJRJwNP_DTGCY5-65" edge="1">
          <mxGeometry relative="1" as="geometry">
            <mxPoint x="208.47148212902084" y="198.11722910760886" as="sourcePoint" />
            <mxPoint x="250.84000000000003" y="288.36" as="targetPoint" />
          </mxGeometry>
        </mxCell>
        <mxCell id="U1PvnMOJRJwNP_DTGCY5-13" style="rounded=0;orthogonalLoop=1;jettySize=auto;html=1;entryX=-0.092;entryY=0.521;entryDx=0;entryDy=0;entryPerimeter=0;exitX=1.1;exitY=0.488;exitDx=0;exitDy=0;exitPerimeter=0;fillColor=#a20025;strokeColor=#6F0000;" parent="1" source="U1PvnMOJRJwNP_DTGCY5-64" target="U1PvnMOJRJwNP_DTGCY5-66" edge="1">
          <mxGeometry relative="1" as="geometry">
            <mxPoint x="219.99984000191876" y="180.07999936000772" as="sourcePoint" />
            <mxPoint x="325.08000000000004" y="180.68" as="targetPoint" />
          </mxGeometry>
        </mxCell>
        <mxCell id="U1PvnMOJRJwNP_DTGCY5-8" value="A1(1)/0" style="text;html=1;align=center;verticalAlign=middle;resizable=0;points=[];autosize=1;strokeColor=none;fillColor=none;" parent="1" vertex="1">
          <mxGeometry x="35" y="230" width="60" height="30" as="geometry" />
        </mxCell>
        <mxCell id="U1PvnMOJRJwNP_DTGCY5-9" value="A2(1)/0" style="text;html=1;align=center;verticalAlign=middle;resizable=0;points=[];autosize=1;strokeColor=none;fillColor=none;" parent="1" vertex="1">
          <mxGeometry x="135" y="230" width="60" height="30" as="geometry" />
        </mxCell>
        <mxCell id="U1PvnMOJRJwNP_DTGCY5-21" style="rounded=0;orthogonalLoop=1;jettySize=auto;html=1;entryX=0.297;entryY=0.043;entryDx=0;entryDy=0;exitX=0.666;exitY=1.039;exitDx=0;exitDy=0;exitPerimeter=0;entryPerimeter=0;fillColor=#a20025;strokeColor=#6F0000;" parent="1" source="U1PvnMOJRJwNP_DTGCY5-66" target="U1PvnMOJRJwNP_DTGCY5-67" edge="1">
          <mxGeometry relative="1" as="geometry">
            <mxPoint x="357.9203833401399" y="198.3648448875772" as="sourcePoint" />
            <mxPoint x="395.85786437626894" y="285.85786437626894" as="targetPoint" />
          </mxGeometry>
        </mxCell>
        <mxCell id="U1PvnMOJRJwNP_DTGCY5-14" value="A3(1)/0" style="text;html=1;align=center;verticalAlign=middle;resizable=0;points=[];autosize=1;strokeColor=none;fillColor=none;" parent="1" vertex="1">
          <mxGeometry x="175" y="178" width="60" height="30" as="geometry" />
        </mxCell>
        <mxCell id="U1PvnMOJRJwNP_DTGCY5-15" value="A4(1)/0" style="text;html=1;align=center;verticalAlign=middle;resizable=0;points=[];autosize=1;strokeColor=none;fillColor=none;" parent="1" vertex="1">
          <mxGeometry x="125" y="100" width="60" height="30" as="geometry" />
        </mxCell>
        <mxCell id="U1PvnMOJRJwNP_DTGCY5-17" style="rounded=0;orthogonalLoop=1;jettySize=auto;html=1;dashed=1;" parent="1" source="U1PvnMOJRJwNP_DTGCY5-65" target="U1PvnMOJRJwNP_DTGCY5-66" edge="1">
          <mxGeometry relative="1" as="geometry">
            <mxPoint x="281.3374987249764" y="283.52392271622136" as="sourcePoint" />
            <mxPoint x="339.91999999999996" y="198.95999999999998" as="targetPoint" />
          </mxGeometry>
        </mxCell>
        <mxCell id="U1PvnMOJRJwNP_DTGCY5-26" style="rounded=0;orthogonalLoop=1;jettySize=auto;html=1;entryX=-0.092;entryY=0.488;entryDx=0;entryDy=0;exitX=1;exitY=0.5;exitDx=0;exitDy=0;exitPerimeter=0;entryPerimeter=0;fillColor=#a20025;strokeColor=#6F0000;" parent="1" source="U1PvnMOJRJwNP_DTGCY5-67" target="U1PvnMOJRJwNP_DTGCY5-69" edge="1">
          <mxGeometry relative="1" as="geometry">
            <mxPoint x="430" y="300" as="sourcePoint" />
            <mxPoint x="530" y="300" as="targetPoint" />
          </mxGeometry>
        </mxCell>
        <mxCell id="U1PvnMOJRJwNP_DTGCY5-22" value="A5(1)/0" style="text;html=1;align=center;verticalAlign=middle;resizable=0;points=[];autosize=1;strokeColor=none;fillColor=none;" parent="1" vertex="1">
          <mxGeometry x="295" y="220" width="60" height="30" as="geometry" />
        </mxCell>
        <mxCell id="U1PvnMOJRJwNP_DTGCY5-34" style="rounded=0;orthogonalLoop=1;jettySize=auto;html=1;exitX=1;exitY=0.5;exitDx=0;exitDy=0;entryX=0;entryY=0.5;entryDx=0;entryDy=0;fillColor=#a20025;strokeColor=#6F0000;" parent="1" source="U1PvnMOJRJwNP_DTGCY5-69" target="U1PvnMOJRJwNP_DTGCY5-71" edge="1">
          <mxGeometry relative="1" as="geometry">
            <mxPoint x="570" y="300" as="sourcePoint" />
            <mxPoint x="570" y="314" as="targetPoint" />
          </mxGeometry>
        </mxCell>
        <mxCell id="U1PvnMOJRJwNP_DTGCY5-25" style="rounded=0;orthogonalLoop=1;jettySize=auto;html=1;entryX=0.2;entryY=-0.012;entryDx=0;entryDy=0;entryPerimeter=0;exitX=0.5;exitY=1;exitDx=0;exitDy=0;" parent="1" source="U1PvnMOJRJwNP_DTGCY5-67" target="U1PvnMOJRJwNP_DTGCY5-68" edge="1">
          <mxGeometry relative="1" as="geometry">
            <mxPoint x="422.1903643643708" y="284.14455876791" as="sourcePoint" />
            <mxPoint x="486.55999999999995" y="200.44" as="targetPoint" />
          </mxGeometry>
        </mxCell>
        <mxCell id="U1PvnMOJRJwNP_DTGCY5-27" value="A6(1)/0" style="text;html=1;align=center;verticalAlign=middle;resizable=0;points=[];autosize=1;strokeColor=none;fillColor=none;" parent="1" vertex="1">
          <mxGeometry x="265" y="350" width="60" height="30" as="geometry" />
        </mxCell>
        <mxCell id="U1PvnMOJRJwNP_DTGCY5-28" value="A7(1)/0" style="text;html=1;align=center;verticalAlign=middle;resizable=0;points=[];autosize=1;" parent="1" vertex="1">
          <mxGeometry x="335" y="280" width="60" height="30" as="geometry" />
        </mxCell>
        <mxCell id="U1PvnMOJRJwNP_DTGCY5-29" style="rounded=0;orthogonalLoop=1;jettySize=auto;html=1;entryX=0;entryY=1;entryDx=0;entryDy=0;dashed=1;" parent="1" source="U1PvnMOJRJwNP_DTGCY5-68" target="U1PvnMOJRJwNP_DTGCY5-69" edge="1">
          <mxGeometry relative="1" as="geometry">
            <mxPoint x="508.1996312267462" y="198.2418762123118" as="sourcePoint" />
            <mxPoint x="544.84" y="279.44000000000005" as="targetPoint" />
          </mxGeometry>
        </mxCell>
        <mxCell id="U1PvnMOJRJwNP_DTGCY5-36" style="rounded=0;orthogonalLoop=1;jettySize=auto;html=1;dashed=1;exitX=0.817;exitY=0.979;exitDx=0;exitDy=0;exitPerimeter=0;" parent="1" source="U1PvnMOJRJwNP_DTGCY5-70" target="U1PvnMOJRJwNP_DTGCY5-71" edge="1">
          <mxGeometry relative="1" as="geometry">
            <mxPoint x="631.0753411285066" y="196.6534326457836" as="sourcePoint" />
            <mxPoint x="688.9059960754953" y="283.35899411324294" as="targetPoint" />
          </mxGeometry>
        </mxCell>
        <mxCell id="U1PvnMOJRJwNP_DTGCY5-31" style="rounded=0;orthogonalLoop=1;jettySize=auto;html=1;exitX=0.53;exitY=-0.098;exitDx=0;exitDy=0;exitPerimeter=0;entryX=0;entryY=1;entryDx=0;entryDy=0;" parent="1" source="U1PvnMOJRJwNP_DTGCY5-69" target="U1PvnMOJRJwNP_DTGCY5-70" edge="1">
          <mxGeometry relative="1" as="geometry">
            <mxPoint x="560.771212307007" y="283.1482646164568" as="sourcePoint" />
            <mxPoint x="520" y="200" as="targetPoint" />
          </mxGeometry>
        </mxCell>
        <mxCell id="U1PvnMOJRJwNP_DTGCY5-32" value="A8(2)/0" style="text;html=1;align=center;verticalAlign=middle;resizable=0;points=[];autosize=1;strokeColor=none;fillColor=none;" parent="1" vertex="1">
          <mxGeometry x="385" y="220" width="60" height="30" as="geometry" />
        </mxCell>
        <mxCell id="U1PvnMOJRJwNP_DTGCY5-35" value="A9(2)/0" style="text;html=1;align=center;verticalAlign=middle;resizable=0;points=[];autosize=1;strokeColor=none;fillColor=none;" parent="1" vertex="1">
          <mxGeometry x="445" y="300" width="60" height="30" as="geometry" />
        </mxCell>
        <mxCell id="U1PvnMOJRJwNP_DTGCY5-38" style="rounded=0;orthogonalLoop=1;jettySize=auto;html=1;exitX=0.858;exitY=0.029;exitDx=0;exitDy=0;exitPerimeter=0;fillColor=#a20025;strokeColor=#6F0000;" parent="1" source="U1PvnMOJRJwNP_DTGCY5-71" target="U1PvnMOJRJwNP_DTGCY5-73" edge="1">
          <mxGeometry relative="1" as="geometry">
            <mxPoint x="711.2667364928432" y="283.47545314383024" as="sourcePoint" />
            <mxPoint x="767.56" y="200.92000000000002" as="targetPoint" />
          </mxGeometry>
        </mxCell>
        <mxCell id="U1PvnMOJRJwNP_DTGCY5-39" value="A10(1)/0" style="text;html=1;align=center;verticalAlign=middle;resizable=0;points=[];autosize=1;strokeColor=none;fillColor=none;" parent="1" vertex="1">
          <mxGeometry x="565" y="230" width="70" height="30" as="geometry" />
        </mxCell>
        <mxCell id="U1PvnMOJRJwNP_DTGCY5-41" style="rounded=0;orthogonalLoop=1;jettySize=auto;html=1;entryX=0.5;entryY=1;entryDx=0;entryDy=0;exitX=0.707;exitY=0.027;exitDx=0;exitDy=0;exitPerimeter=0;fillColor=#a20025;strokeColor=#6F0000;" parent="1" source="U1PvnMOJRJwNP_DTGCY5-73" target="U1PvnMOJRJwNP_DTGCY5-74" edge="1">
          <mxGeometry relative="1" as="geometry">
            <mxPoint x="789.0879497625729" y="197.81598072266752" as="sourcePoint" />
            <mxPoint x="830.76" y="279.44000000000005" as="targetPoint" />
          </mxGeometry>
        </mxCell>
        <mxCell id="U1PvnMOJRJwNP_DTGCY5-42" value="A11(2)/0" style="text;html=1;align=center;verticalAlign=middle;resizable=0;points=[];autosize=1;strokeColor=none;fillColor=none;" parent="1" vertex="1">
          <mxGeometry x="535" y="110" width="70" height="30" as="geometry" />
        </mxCell>
        <mxCell id="U1PvnMOJRJwNP_DTGCY5-44" style="rounded=0;orthogonalLoop=1;jettySize=auto;html=1;entryX=0.347;entryY=0.067;entryDx=0;entryDy=0;entryPerimeter=0;exitX=0.704;exitY=1.046;exitDx=0;exitDy=0;exitPerimeter=0;fillColor=#a20025;strokeColor=#6F0000;" parent="1" source="U1PvnMOJRJwNP_DTGCY5-74" target="U1PvnMOJRJwNP_DTGCY5-77" edge="1">
          <mxGeometry relative="1" as="geometry">
            <mxPoint x="853.3292920590764" y="285.0892665101858" as="sourcePoint" />
            <mxPoint x="928.6800000000001" y="200.68" as="targetPoint" />
          </mxGeometry>
        </mxCell>
        <mxCell id="U1PvnMOJRJwNP_DTGCY5-45" value="A12(1)/0" style="text;html=1;align=center;verticalAlign=middle;resizable=0;points=[];autosize=1;strokeColor=none;fillColor=none;" parent="1" vertex="1">
          <mxGeometry x="635" y="110" width="70" height="30" as="geometry" />
        </mxCell>
        <mxCell id="U1PvnMOJRJwNP_DTGCY5-60" value="1&lt;div&gt;0&amp;nbsp; &amp;nbsp; &amp;nbsp; &amp;nbsp; 0&lt;/div&gt;&lt;div&gt;&lt;br&gt;&lt;/div&gt;" style="shape=sumEllipse;perimeter=ellipsePerimeter;whiteSpace=wrap;html=1;backgroundOutline=1;strokeWidth=1;fillColor=#9999FF;" parent="1" vertex="1">
          <mxGeometry x="40" y="160" width="50" height="50" as="geometry" />
        </mxCell>
        <mxCell id="U1PvnMOJRJwNP_DTGCY5-63" value="2&lt;div&gt;1&amp;nbsp; &amp;nbsp; &amp;nbsp; &amp;nbsp; -&lt;/div&gt;&lt;div&gt;&lt;br&gt;&lt;/div&gt;" style="shape=sumEllipse;perimeter=ellipsePerimeter;whiteSpace=wrap;html=1;backgroundOutline=1;strokeWidth=1;fillColor=#a20025;fontColor=#ffffff;strokeColor=#6F0000;" parent="1" vertex="1">
          <mxGeometry x="90" y="280" width="50" height="50" as="geometry" />
        </mxCell>
        <mxCell id="U1PvnMOJRJwNP_DTGCY5-64" value="3&lt;div&gt;2&amp;nbsp; &amp;nbsp; &amp;nbsp; &amp;nbsp;2&lt;/div&gt;&lt;div&gt;&lt;br&gt;&lt;/div&gt;" style="shape=sumEllipse;perimeter=ellipsePerimeter;whiteSpace=wrap;html=1;backgroundOutline=1;strokeWidth=1;fillColor=#a20025;fontColor=#ffffff;strokeColor=#6F0000;" parent="1" vertex="1">
          <mxGeometry x="130" y="160" width="50" height="50" as="geometry" />
        </mxCell>
        <mxCell id="U1PvnMOJRJwNP_DTGCY5-65" value="4&lt;div&gt;3&amp;nbsp; &amp;nbsp; &amp;nbsp; &amp;nbsp;3&lt;/div&gt;&lt;div&gt;&lt;br&gt;&lt;/div&gt;" style="shape=sumEllipse;perimeter=ellipsePerimeter;whiteSpace=wrap;html=1;backgroundOutline=1;strokeWidth=1;" parent="1" vertex="1">
          <mxGeometry x="170" y="40" width="50" height="50" as="geometry" />
        </mxCell>
        <mxCell id="U1PvnMOJRJwNP_DTGCY5-66" value="5&lt;div&gt;3&amp;nbsp; &amp;nbsp; &amp;nbsp; &amp;nbsp;3&lt;/div&gt;&lt;div&gt;&lt;br&gt;&lt;/div&gt;" style="shape=sumEllipse;perimeter=ellipsePerimeter;whiteSpace=wrap;html=1;backgroundOutline=1;strokeWidth=1;fillColor=#a20025;fontColor=#ffffff;strokeColor=#6F0000;" parent="1" vertex="1">
          <mxGeometry x="250" y="158" width="50" height="50" as="geometry" />
        </mxCell>
        <mxCell id="U1PvnMOJRJwNP_DTGCY5-67" value="6&lt;div&gt;4&amp;nbsp; &amp;nbsp; &amp;nbsp; &amp;nbsp;4&lt;/div&gt;&lt;div&gt;&lt;br&gt;&lt;/div&gt;" style="shape=sumEllipse;perimeter=ellipsePerimeter;whiteSpace=wrap;html=1;backgroundOutline=1;strokeWidth=1;fillColor=#a20025;fontColor=#ffffff;strokeColor=#6F0000;" parent="1" vertex="1">
          <mxGeometry x="290" y="280" width="50" height="50" as="geometry" />
        </mxCell>
        <mxCell id="U1PvnMOJRJwNP_DTGCY5-68" value="7&lt;div&gt;5&amp;nbsp; &amp;nbsp; &amp;nbsp; &amp;nbsp;5&lt;/div&gt;&lt;div&gt;&lt;br&gt;&lt;/div&gt;" style="shape=sumEllipse;perimeter=ellipsePerimeter;whiteSpace=wrap;html=1;backgroundOutline=1;strokeWidth=1;" parent="1" vertex="1">
          <mxGeometry x="320" y="390" width="50" height="50" as="geometry" />
        </mxCell>
        <mxCell id="U1PvnMOJRJwNP_DTGCY5-69" value="8&lt;div&gt;5&amp;nbsp; &amp;nbsp; &amp;nbsp; &amp;nbsp;5&lt;/div&gt;&lt;div&gt;&lt;br&gt;&lt;/div&gt;" style="shape=sumEllipse;perimeter=ellipsePerimeter;whiteSpace=wrap;html=1;backgroundOutline=1;strokeWidth=1;fillColor=#a20025;fontColor=#ffffff;strokeColor=#6F0000;" parent="1" vertex="1">
          <mxGeometry x="405" y="280" width="50" height="50" as="geometry" />
        </mxCell>
        <mxCell id="U1PvnMOJRJwNP_DTGCY5-70" value="9&lt;div&gt;7&amp;nbsp; &amp;nbsp; &amp;nbsp; &amp;nbsp;7&lt;/div&gt;&lt;div&gt;&lt;br&gt;&lt;/div&gt;" style="shape=sumEllipse;perimeter=ellipsePerimeter;whiteSpace=wrap;html=1;backgroundOutline=1;strokeWidth=1;" parent="1" vertex="1">
          <mxGeometry x="440" y="158" width="50" height="50" as="geometry" />
        </mxCell>
        <mxCell id="U1PvnMOJRJwNP_DTGCY5-71" value="10&lt;div&gt;7&amp;nbsp; &amp;nbsp; &amp;nbsp; &amp;nbsp;7&lt;/div&gt;&lt;div&gt;&lt;br&gt;&lt;/div&gt;" style="shape=sumEllipse;perimeter=ellipsePerimeter;whiteSpace=wrap;html=1;backgroundOutline=1;strokeWidth=1;fillColor=#a20025;fontColor=#ffffff;strokeColor=#6F0000;" parent="1" vertex="1">
          <mxGeometry x="520" y="280" width="50" height="50" as="geometry" />
        </mxCell>
        <mxCell id="U1PvnMOJRJwNP_DTGCY5-73" value="11&lt;div&gt;8&amp;nbsp; &amp;nbsp; &amp;nbsp; 8&lt;/div&gt;&lt;div&gt;&lt;br&gt;&lt;/div&gt;" style="shape=sumEllipse;perimeter=ellipsePerimeter;whiteSpace=wrap;html=1;backgroundOutline=1;strokeWidth=1;fillColor=#a20025;fontColor=#ffffff;strokeColor=#6F0000;" parent="1" vertex="1">
          <mxGeometry x="560" y="160" width="50" height="50" as="geometry" />
        </mxCell>
        <mxCell id="U1PvnMOJRJwNP_DTGCY5-74" value="12&lt;div&gt;10&amp;nbsp; &amp;nbsp; &amp;nbsp; 10&lt;/div&gt;&lt;div&gt;&lt;br&gt;&lt;/div&gt;" style="shape=sumEllipse;perimeter=ellipsePerimeter;whiteSpace=wrap;html=1;backgroundOutline=1;strokeWidth=1;fillColor=#a20025;fontColor=#ffffff;strokeColor=#6F0000;" parent="1" vertex="1">
          <mxGeometry x="590" y="40" width="50" height="50" as="geometry" />
        </mxCell>
        <mxCell id="U1PvnMOJRJwNP_DTGCY5-77" value="13&lt;div&gt;11&amp;nbsp; &amp;nbsp; &amp;nbsp;11&lt;/div&gt;&lt;div&gt;&lt;br&gt;&lt;/div&gt;" style="shape=sumEllipse;perimeter=ellipsePerimeter;whiteSpace=wrap;html=1;backgroundOutline=1;strokeWidth=1;fillColor=#a20025;fontColor=#ffffff;strokeColor=#6F0000;" parent="1" vertex="1">
          <mxGeometry x="630" y="160" width="50" height="50" as="geometry" />
        </mxCell>
        <mxCell id="U1PvnMOJRJwNP_DTGCY5-83" style="rounded=0;orthogonalLoop=1;jettySize=auto;html=1;entryX=0.249;entryY=0.034;entryDx=0;entryDy=0;entryPerimeter=0;" parent="1" source="U1PvnMOJRJwNP_DTGCY5-79" target="U1PvnMOJRJwNP_DTGCY5-82" edge="1">
          <mxGeometry relative="1" as="geometry" />
        </mxCell>
        <mxCell id="U1PvnMOJRJwNP_DTGCY5-87" style="edgeStyle=none;rounded=0;orthogonalLoop=1;jettySize=auto;html=1;fillColor=#a20025;strokeColor=#6F0000;" parent="1" source="U1PvnMOJRJwNP_DTGCY5-79" target="U1PvnMOJRJwNP_DTGCY5-86" edge="1">
          <mxGeometry relative="1" as="geometry" />
        </mxCell>
        <mxCell id="U1PvnMOJRJwNP_DTGCY5-79" value="14&lt;div&gt;12&amp;nbsp; &amp;nbsp; &amp;nbsp;12&lt;/div&gt;&lt;div&gt;&lt;br&gt;&lt;/div&gt;" style="shape=sumEllipse;perimeter=ellipsePerimeter;whiteSpace=wrap;html=1;backgroundOutline=1;strokeWidth=1;fillColor=#a20025;fontColor=#ffffff;strokeColor=#6F0000;" parent="1" vertex="1">
          <mxGeometry x="650" y="260" width="50" height="50" as="geometry" />
        </mxCell>
        <mxCell id="U1PvnMOJRJwNP_DTGCY5-80" style="rounded=0;orthogonalLoop=1;jettySize=auto;html=1;entryX=0.392;entryY=-0.023;entryDx=0;entryDy=0;entryPerimeter=0;fillColor=#a20025;strokeColor=#6F0000;" parent="1" source="U1PvnMOJRJwNP_DTGCY5-77" target="U1PvnMOJRJwNP_DTGCY5-79" edge="1">
          <mxGeometry relative="1" as="geometry" />
        </mxCell>
        <mxCell id="U1PvnMOJRJwNP_DTGCY5-81" value="A13(1)/0" style="text;html=1;align=center;verticalAlign=middle;resizable=0;points=[];autosize=1;strokeColor=none;fillColor=none;" parent="1" vertex="1">
          <mxGeometry x="655" y="208" width="70" height="30" as="geometry" />
        </mxCell>
        <mxCell id="U1PvnMOJRJwNP_DTGCY5-88" style="edgeStyle=none;rounded=0;orthogonalLoop=1;jettySize=auto;html=1;dashed=1;" parent="1" source="U1PvnMOJRJwNP_DTGCY5-82" target="U1PvnMOJRJwNP_DTGCY5-86" edge="1">
          <mxGeometry relative="1" as="geometry" />
        </mxCell>
        <mxCell id="U1PvnMOJRJwNP_DTGCY5-82" value="15&lt;div&gt;14&amp;nbsp; &amp;nbsp; &amp;nbsp; 14&lt;/div&gt;&lt;div&gt;&lt;br&gt;&lt;/div&gt;" style="shape=sumEllipse;perimeter=ellipsePerimeter;whiteSpace=wrap;html=1;backgroundOutline=1;strokeWidth=1;" parent="1" vertex="1">
          <mxGeometry x="680" y="390" width="50" height="50" as="geometry" />
        </mxCell>
        <mxCell id="U1PvnMOJRJwNP_DTGCY5-84" value="A14(2)/0" style="text;html=1;align=center;verticalAlign=middle;resizable=0;points=[];autosize=1;strokeColor=none;fillColor=none;" parent="1" vertex="1">
          <mxGeometry x="625" y="338" width="70" height="30" as="geometry" />
        </mxCell>
        <mxCell id="U1PvnMOJRJwNP_DTGCY5-86" value="16&lt;div&gt;14&amp;nbsp; &amp;nbsp; &amp;nbsp;14&lt;/div&gt;&lt;div&gt;&lt;br&gt;&lt;/div&gt;" style="shape=sumEllipse;perimeter=ellipsePerimeter;whiteSpace=wrap;html=1;backgroundOutline=1;strokeWidth=1;fillColor=#a20025;fontColor=#ffffff;strokeColor=#6F0000;" parent="1" vertex="1">
          <mxGeometry x="750" y="260" width="50" height="50" as="geometry" />
        </mxCell>
        <mxCell id="U1PvnMOJRJwNP_DTGCY5-89" value="A15(2)/0" style="text;html=1;align=center;verticalAlign=middle;resizable=0;points=[];autosize=1;strokeColor=none;fillColor=none;" parent="1" vertex="1">
          <mxGeometry x="685" y="290" width="70" height="30" as="geometry" />
        </mxCell>
        <mxCell id="U1PvnMOJRJwNP_DTGCY5-90" value="17&lt;div&gt;15&amp;nbsp; &amp;nbsp; &amp;nbsp;15&lt;/div&gt;&lt;div&gt;&lt;br&gt;&lt;/div&gt;" style="shape=sumEllipse;perimeter=ellipsePerimeter;whiteSpace=wrap;html=1;backgroundOutline=1;strokeWidth=1;fillColor=#a20025;fontColor=#ffffff;strokeColor=#6F0000;" parent="1" vertex="1">
          <mxGeometry x="750" y="148" width="50" height="50" as="geometry" />
        </mxCell>
        <mxCell id="U1PvnMOJRJwNP_DTGCY5-91" style="edgeStyle=none;rounded=0;orthogonalLoop=1;jettySize=auto;html=1;exitX=0.5;exitY=0;exitDx=0;exitDy=0;entryX=0.5;entryY=1;entryDx=0;entryDy=0;fillColor=#a20025;strokeColor=#6F0000;" parent="1" source="U1PvnMOJRJwNP_DTGCY5-86" target="U1PvnMOJRJwNP_DTGCY5-90" edge="1">
          <mxGeometry relative="1" as="geometry">
            <mxPoint x="770" y="250" as="sourcePoint" />
            <mxPoint x="780" y="210" as="targetPoint" />
          </mxGeometry>
        </mxCell>
        <mxCell id="U1PvnMOJRJwNP_DTGCY5-92" value="A16(1)/0" style="text;html=1;align=center;verticalAlign=middle;resizable=0;points=[];autosize=1;strokeColor=none;fillColor=none;" parent="1" vertex="1">
          <mxGeometry x="765" y="220" width="70" height="30" as="geometry" />
        </mxCell>
        <mxCell id="U1PvnMOJRJwNP_DTGCY5-97" style="edgeStyle=none;rounded=0;orthogonalLoop=1;jettySize=auto;html=1;fillColor=#a20025;strokeColor=#6F0000;" parent="1" source="U1PvnMOJRJwNP_DTGCY5-93" target="U1PvnMOJRJwNP_DTGCY5-96" edge="1">
          <mxGeometry relative="1" as="geometry" />
        </mxCell>
        <mxCell id="U1PvnMOJRJwNP_DTGCY5-93" value="18&lt;div&gt;17&amp;nbsp; &amp;nbsp; &amp;nbsp;17&lt;/div&gt;&lt;div&gt;&lt;br&gt;&lt;/div&gt;" style="shape=sumEllipse;perimeter=ellipsePerimeter;whiteSpace=wrap;html=1;backgroundOutline=1;strokeWidth=1;fillColor=#a20025;fontColor=#ffffff;strokeColor=#6F0000;" parent="1" vertex="1">
          <mxGeometry x="780" y="38" width="50" height="50" as="geometry" />
        </mxCell>
        <mxCell id="U1PvnMOJRJwNP_DTGCY5-94" style="edgeStyle=none;rounded=0;orthogonalLoop=1;jettySize=auto;html=1;entryX=0.5;entryY=1;entryDx=0;entryDy=0;fillColor=#a20025;strokeColor=#6F0000;" parent="1" source="U1PvnMOJRJwNP_DTGCY5-90" target="U1PvnMOJRJwNP_DTGCY5-93" edge="1">
          <mxGeometry relative="1" as="geometry" />
        </mxCell>
        <mxCell id="U1PvnMOJRJwNP_DTGCY5-95" value="A17(2)/0" style="text;html=1;align=center;verticalAlign=middle;resizable=0;points=[];autosize=1;strokeColor=none;fillColor=none;" parent="1" vertex="1">
          <mxGeometry x="725" y="100" width="70" height="30" as="geometry" />
        </mxCell>
        <mxCell id="U1PvnMOJRJwNP_DTGCY5-100" style="edgeStyle=none;rounded=0;orthogonalLoop=1;jettySize=auto;html=1;entryX=0.5;entryY=0;entryDx=0;entryDy=0;fillColor=#a20025;strokeColor=#6F0000;" parent="1" source="U1PvnMOJRJwNP_DTGCY5-96" target="U1PvnMOJRJwNP_DTGCY5-99" edge="1">
          <mxGeometry relative="1" as="geometry" />
        </mxCell>
        <mxCell id="U1PvnMOJRJwNP_DTGCY5-96" value="19&lt;div&gt;18&amp;nbsp; &amp;nbsp; &amp;nbsp;18&lt;/div&gt;&lt;div&gt;&lt;br&gt;&lt;/div&gt;" style="shape=sumEllipse;perimeter=ellipsePerimeter;whiteSpace=wrap;html=1;backgroundOutline=1;strokeWidth=1;fillColor=#a20025;fontColor=#ffffff;strokeColor=#6F0000;" parent="1" vertex="1">
          <mxGeometry x="820" y="150" width="50" height="50" as="geometry" />
        </mxCell>
        <mxCell id="U1PvnMOJRJwNP_DTGCY5-98" value="A18(1)/0" style="text;html=1;align=center;verticalAlign=middle;resizable=0;points=[];autosize=1;strokeColor=none;fillColor=none;" parent="1" vertex="1">
          <mxGeometry x="815" y="100" width="70" height="30" as="geometry" />
        </mxCell>
        <mxCell id="GgOGUfkBoArqTWkegUX4-5" style="edgeStyle=none;rounded=0;orthogonalLoop=1;jettySize=auto;html=1;entryX=0;entryY=0.5;entryDx=0;entryDy=0;fillColor=#a20025;strokeColor=#6F0000;" parent="1" source="U1PvnMOJRJwNP_DTGCY5-99" target="GgOGUfkBoArqTWkegUX4-2" edge="1">
          <mxGeometry relative="1" as="geometry" />
        </mxCell>
        <mxCell id="U1PvnMOJRJwNP_DTGCY5-99" value="20&lt;div&gt;19&amp;nbsp; &amp;nbsp; &amp;nbsp; 19&lt;/div&gt;&lt;div&gt;&lt;br&gt;&lt;/div&gt;" style="shape=sumEllipse;perimeter=ellipsePerimeter;whiteSpace=wrap;html=1;backgroundOutline=1;strokeWidth=1;fillColor=#a20025;fontColor=#ffffff;strokeColor=#6F0000;" parent="1" vertex="1">
          <mxGeometry x="830" y="260" width="50" height="50" as="geometry" />
        </mxCell>
        <mxCell id="U1PvnMOJRJwNP_DTGCY5-101" value="A19(1)/0" style="text;html=1;align=center;verticalAlign=middle;resizable=0;points=[];autosize=1;strokeColor=none;fillColor=none;" parent="1" vertex="1">
          <mxGeometry x="845" y="210" width="70" height="30" as="geometry" />
        </mxCell>
        <mxCell id="GgOGUfkBoArqTWkegUX4-7" style="edgeStyle=none;rounded=0;orthogonalLoop=1;jettySize=auto;html=1;dashed=1;" parent="1" source="U1PvnMOJRJwNP_DTGCY5-102" target="GgOGUfkBoArqTWkegUX4-2" edge="1">
          <mxGeometry relative="1" as="geometry" />
        </mxCell>
        <mxCell id="U1PvnMOJRJwNP_DTGCY5-102" value="21&lt;div&gt;20&amp;nbsp; &amp;nbsp; &amp;nbsp;20&lt;/div&gt;&lt;div&gt;&lt;br&gt;&lt;/div&gt;" style="shape=sumEllipse;perimeter=ellipsePerimeter;whiteSpace=wrap;html=1;backgroundOutline=1;strokeWidth=1;" parent="1" vertex="1">
          <mxGeometry x="860" y="398" width="50" height="50" as="geometry" />
        </mxCell>
        <mxCell id="U1PvnMOJRJwNP_DTGCY5-103" style="edgeStyle=none;rounded=0;orthogonalLoop=1;jettySize=auto;html=1;entryX=0.27;entryY=0.004;entryDx=0;entryDy=0;entryPerimeter=0;exitX=0.629;exitY=1.023;exitDx=0;exitDy=0;exitPerimeter=0;" parent="1" source="U1PvnMOJRJwNP_DTGCY5-99" target="U1PvnMOJRJwNP_DTGCY5-102" edge="1">
          <mxGeometry relative="1" as="geometry" />
        </mxCell>
        <mxCell id="U1PvnMOJRJwNP_DTGCY5-104" value="B1(1)/0" style="text;html=1;align=center;verticalAlign=middle;resizable=0;points=[];autosize=1;strokeColor=none;fillColor=none;" parent="1" vertex="1">
          <mxGeometry x="815" y="338" width="60" height="30" as="geometry" />
        </mxCell>
        <mxCell id="GgOGUfkBoArqTWkegUX4-2" value="22&lt;div&gt;20&amp;nbsp; &amp;nbsp; &amp;nbsp;20&lt;/div&gt;&lt;div&gt;&lt;br&gt;&lt;/div&gt;" style="shape=sumEllipse;perimeter=ellipsePerimeter;whiteSpace=wrap;html=1;backgroundOutline=1;strokeWidth=1;fillColor=#a20025;fontColor=#ffffff;strokeColor=#6F0000;" parent="1" vertex="1">
          <mxGeometry x="940" y="260" width="50" height="50" as="geometry" />
        </mxCell>
        <mxCell id="GgOGUfkBoArqTWkegUX4-6" value="B2(1)/0" style="text;html=1;align=center;verticalAlign=middle;resizable=0;points=[];autosize=1;strokeColor=none;fillColor=none;" parent="1" vertex="1">
          <mxGeometry x="875" y="260" width="60" height="30" as="geometry" />
        </mxCell>
        <mxCell id="GgOGUfkBoArqTWkegUX4-8" value="23&lt;div&gt;21&amp;nbsp; &amp;nbsp; &amp;nbsp;21&lt;/div&gt;&lt;div&gt;&lt;br&gt;&lt;/div&gt;" style="shape=sumEllipse;perimeter=ellipsePerimeter;whiteSpace=wrap;html=1;backgroundOutline=1;strokeWidth=1;" parent="1" vertex="1">
          <mxGeometry x="970" y="150" width="50" height="50" as="geometry" />
        </mxCell>
        <mxCell id="GgOGUfkBoArqTWkegUX4-9" style="edgeStyle=none;rounded=0;orthogonalLoop=1;jettySize=auto;html=1;entryX=0.5;entryY=1;entryDx=0;entryDy=0;" parent="1" source="GgOGUfkBoArqTWkegUX4-2" target="GgOGUfkBoArqTWkegUX4-8" edge="1">
          <mxGeometry relative="1" as="geometry" />
        </mxCell>
        <mxCell id="GgOGUfkBoArqTWkegUX4-10" value="B3(1)/0" style="text;html=1;align=center;verticalAlign=middle;resizable=0;points=[];autosize=1;strokeColor=none;fillColor=none;" parent="1" vertex="1">
          <mxGeometry x="975" y="220" width="60" height="30" as="geometry" />
        </mxCell>
        <mxCell id="GgOGUfkBoArqTWkegUX4-20" style="edgeStyle=none;rounded=0;orthogonalLoop=1;jettySize=auto;html=1;entryX=0.5;entryY=0;entryDx=0;entryDy=0;" parent="1" source="GgOGUfkBoArqTWkegUX4-12" target="GgOGUfkBoArqTWkegUX4-19" edge="1">
          <mxGeometry relative="1" as="geometry" />
        </mxCell>
        <mxCell id="GgOGUfkBoArqTWkegUX4-23" style="edgeStyle=none;rounded=0;orthogonalLoop=1;jettySize=auto;html=1;entryX=0;entryY=0.5;entryDx=0;entryDy=0;fillColor=#a20025;strokeColor=#6F0000;" parent="1" source="GgOGUfkBoArqTWkegUX4-12" target="GgOGUfkBoArqTWkegUX4-22" edge="1">
          <mxGeometry relative="1" as="geometry" />
        </mxCell>
        <mxCell id="GgOGUfkBoArqTWkegUX4-12" value="24&lt;div&gt;21&amp;nbsp; &amp;nbsp; &amp;nbsp;21&lt;/div&gt;&lt;div&gt;&lt;br&gt;&lt;/div&gt;" style="shape=sumEllipse;perimeter=ellipsePerimeter;whiteSpace=wrap;html=1;backgroundOutline=1;strokeWidth=1;rotation=0;fillColor=#a20025;fontColor=#ffffff;strokeColor=#6F0000;" parent="1" vertex="1">
          <mxGeometry x="1070" y="268" width="50" height="50" as="geometry" />
        </mxCell>
        <mxCell id="GgOGUfkBoArqTWkegUX4-13" style="edgeStyle=none;rounded=0;orthogonalLoop=1;jettySize=auto;html=1;entryX=-0.045;entryY=0.349;entryDx=0;entryDy=0;entryPerimeter=0;fillColor=#a20025;strokeColor=#6F0000;" parent="1" source="GgOGUfkBoArqTWkegUX4-2" target="GgOGUfkBoArqTWkegUX4-12" edge="1">
          <mxGeometry relative="1" as="geometry">
            <mxPoint x="1140" y="285" as="targetPoint" />
          </mxGeometry>
        </mxCell>
        <mxCell id="GgOGUfkBoArqTWkegUX4-14" value="B4(1)/0" style="text;html=1;align=center;verticalAlign=middle;resizable=0;points=[];autosize=1;strokeColor=none;fillColor=none;" parent="1" vertex="1">
          <mxGeometry x="995" y="280" width="60" height="30" as="geometry" />
        </mxCell>
        <mxCell id="GgOGUfkBoArqTWkegUX4-18" style="edgeStyle=none;rounded=0;orthogonalLoop=1;jettySize=auto;html=1;entryX=0.188;entryY=0.011;entryDx=0;entryDy=0;entryPerimeter=0;dashed=1;" parent="1" source="GgOGUfkBoArqTWkegUX4-8" target="GgOGUfkBoArqTWkegUX4-12" edge="1">
          <mxGeometry relative="1" as="geometry" />
        </mxCell>
        <mxCell id="GgOGUfkBoArqTWkegUX4-19" value="25&lt;div&gt;23&amp;nbsp; &amp;nbsp; &amp;nbsp;23&lt;/div&gt;&lt;div&gt;&lt;br&gt;&lt;/div&gt;" style="shape=sumEllipse;perimeter=ellipsePerimeter;whiteSpace=wrap;html=1;backgroundOutline=1;strokeWidth=1;rotation=0;" parent="1" vertex="1">
          <mxGeometry x="1090" y="398" width="50" height="50" as="geometry" />
        </mxCell>
        <mxCell id="GgOGUfkBoArqTWkegUX4-21" value="B5(2)/0" style="text;html=1;align=center;verticalAlign=middle;resizable=0;points=[];autosize=1;strokeColor=none;fillColor=none;" parent="1" vertex="1">
          <mxGeometry x="1045" y="346" width="60" height="30" as="geometry" />
        </mxCell>
        <mxCell id="GgOGUfkBoArqTWkegUX4-27" style="edgeStyle=none;rounded=0;orthogonalLoop=1;jettySize=auto;html=1;entryX=0.351;entryY=1.057;entryDx=0;entryDy=0;entryPerimeter=0;exitX=0.404;exitY=-0.02;exitDx=0;exitDy=0;exitPerimeter=0;fillColor=#a20025;strokeColor=#6F0000;" parent="1" source="GgOGUfkBoArqTWkegUX4-22" target="GgOGUfkBoArqTWkegUX4-26" edge="1">
          <mxGeometry relative="1" as="geometry" />
        </mxCell>
        <mxCell id="GgOGUfkBoArqTWkegUX4-22" value="26&lt;div&gt;23&amp;nbsp; &amp;nbsp; &amp;nbsp;23&lt;/div&gt;&lt;div&gt;&lt;br&gt;&lt;/div&gt;" style="shape=sumEllipse;perimeter=ellipsePerimeter;whiteSpace=wrap;html=1;backgroundOutline=1;strokeWidth=1;rotation=0;fillColor=#a20025;fontColor=#ffffff;strokeColor=#6F0000;" parent="1" vertex="1">
          <mxGeometry x="1180" y="268" width="50" height="50" as="geometry" />
        </mxCell>
        <mxCell id="GgOGUfkBoArqTWkegUX4-24" value="B6(2)/0" style="text;html=1;align=center;verticalAlign=middle;resizable=0;points=[];autosize=1;strokeColor=none;fillColor=none;" parent="1" vertex="1">
          <mxGeometry x="1115" y="260" width="60" height="30" as="geometry" />
        </mxCell>
        <mxCell id="GgOGUfkBoArqTWkegUX4-25" style="edgeStyle=none;rounded=0;orthogonalLoop=1;jettySize=auto;html=1;entryX=0.2;entryY=1;entryDx=0;entryDy=0;entryPerimeter=0;dashed=1;" parent="1" source="GgOGUfkBoArqTWkegUX4-19" target="GgOGUfkBoArqTWkegUX4-22" edge="1">
          <mxGeometry relative="1" as="geometry" />
        </mxCell>
        <mxCell id="GgOGUfkBoArqTWkegUX4-26" value="27&lt;div&gt;24&amp;nbsp; &amp;nbsp; &amp;nbsp;24&lt;/div&gt;&lt;div&gt;&lt;br&gt;&lt;/div&gt;" style="shape=sumEllipse;perimeter=ellipsePerimeter;whiteSpace=wrap;html=1;backgroundOutline=1;strokeWidth=1;rotation=0;fillColor=#a20025;fontColor=#ffffff;strokeColor=#6F0000;" parent="1" vertex="1">
          <mxGeometry x="1200" y="148" width="50" height="50" as="geometry" />
        </mxCell>
        <mxCell id="GgOGUfkBoArqTWkegUX4-28" value="B7(1)/0" style="text;html=1;align=center;verticalAlign=middle;resizable=0;points=[];autosize=1;strokeColor=none;fillColor=none;" parent="1" vertex="1">
          <mxGeometry x="1205" y="228" width="60" height="30" as="geometry" />
        </mxCell>
        <mxCell id="GgOGUfkBoArqTWkegUX4-29" value="28&lt;div&gt;25&amp;nbsp; &amp;nbsp; &amp;nbsp;25&lt;/div&gt;&lt;div&gt;&lt;br&gt;&lt;/div&gt;" style="shape=sumEllipse;perimeter=ellipsePerimeter;whiteSpace=wrap;html=1;backgroundOutline=1;strokeWidth=1;rotation=0;fillColor=#a20025;fontColor=#ffffff;strokeColor=#6F0000;" parent="1" vertex="1">
          <mxGeometry x="1250" y="38" width="50" height="50" as="geometry" />
        </mxCell>
        <mxCell id="GgOGUfkBoArqTWkegUX4-30" style="edgeStyle=none;rounded=0;orthogonalLoop=1;jettySize=auto;html=1;entryX=0.238;entryY=1.016;entryDx=0;entryDy=0;entryPerimeter=0;fillColor=#a20025;strokeColor=#6F0000;" parent="1" source="GgOGUfkBoArqTWkegUX4-26" target="GgOGUfkBoArqTWkegUX4-29" edge="1">
          <mxGeometry relative="1" as="geometry" />
        </mxCell>
        <mxCell id="GgOGUfkBoArqTWkegUX4-31" value="B8(1)/0" style="text;html=1;align=center;verticalAlign=middle;resizable=0;points=[];autosize=1;strokeColor=none;fillColor=none;" parent="1" vertex="1">
          <mxGeometry x="1195" y="100" width="60" height="30" as="geometry" />
        </mxCell>
        <mxCell id="GgOGUfkBoArqTWkegUX4-36" style="edgeStyle=none;rounded=0;orthogonalLoop=1;jettySize=auto;html=1;entryX=0.29;entryY=-0.048;entryDx=0;entryDy=0;entryPerimeter=0;" parent="1" source="GgOGUfkBoArqTWkegUX4-32" target="GgOGUfkBoArqTWkegUX4-35" edge="1">
          <mxGeometry relative="1" as="geometry" />
        </mxCell>
        <mxCell id="GgOGUfkBoArqTWkegUX4-32" value="&lt;span style=&quot;font-weight: normal;&quot;&gt;29&lt;/span&gt;&lt;div&gt;&lt;span style=&quot;font-weight: normal;&quot;&gt;27&amp;nbsp; &amp;nbsp; &amp;nbsp;27&lt;/span&gt;&lt;/div&gt;&lt;div&gt;&lt;span style=&quot;font-weight: normal;&quot;&gt;&lt;br&gt;&lt;/span&gt;&lt;/div&gt;" style="shape=sumEllipse;perimeter=ellipsePerimeter;whiteSpace=wrap;html=1;backgroundOutline=1;strokeWidth=1;rotation=0;fontStyle=1;fillColor=#a20025;fontColor=#ffffff;strokeColor=#6F0000;" parent="1" vertex="1">
          <mxGeometry x="1275" y="156" width="50" height="50" as="geometry" />
        </mxCell>
        <mxCell id="GgOGUfkBoArqTWkegUX4-33" style="edgeStyle=none;rounded=0;orthogonalLoop=1;jettySize=auto;html=1;entryX=0.354;entryY=-0.04;entryDx=0;entryDy=0;entryPerimeter=0;fillColor=#a20025;strokeColor=#6F0000;" parent="1" source="GgOGUfkBoArqTWkegUX4-29" target="GgOGUfkBoArqTWkegUX4-32" edge="1">
          <mxGeometry relative="1" as="geometry" />
        </mxCell>
        <mxCell id="GgOGUfkBoArqTWkegUX4-34" value="B9(2)/0" style="text;html=1;align=center;verticalAlign=middle;resizable=0;points=[];autosize=1;strokeColor=none;fillColor=none;" parent="1" vertex="1">
          <mxGeometry x="1270" y="100" width="60" height="30" as="geometry" />
        </mxCell>
        <mxCell id="GgOGUfkBoArqTWkegUX4-35" value="30&lt;div&gt;30&amp;nbsp; &amp;nbsp; &amp;nbsp;30&lt;/div&gt;&lt;div&gt;&lt;br&gt;&lt;/div&gt;" style="shape=sumEllipse;perimeter=ellipsePerimeter;whiteSpace=wrap;html=1;backgroundOutline=1;strokeWidth=1;rotation=0;" parent="1" vertex="1">
          <mxGeometry x="1325" y="348" width="50" height="50" as="geometry" />
        </mxCell>
        <mxCell id="GgOGUfkBoArqTWkegUX4-37" value="B10(3)/0" style="text;html=1;align=center;verticalAlign=middle;resizable=0;points=[];autosize=1;strokeColor=none;fillColor=none;" parent="1" vertex="1">
          <mxGeometry x="1260" y="270" width="70" height="30" as="geometry" />
        </mxCell>
        <mxCell id="GgOGUfkBoArqTWkegUX4-51" style="edgeStyle=none;rounded=0;orthogonalLoop=1;jettySize=auto;html=1;entryX=0.265;entryY=0.023;entryDx=0;entryDy=0;dashed=1;entryPerimeter=0;exitX=0.659;exitY=1.05;exitDx=0;exitDy=0;exitPerimeter=0;" parent="1" source="GgOGUfkBoArqTWkegUX4-38" target="GgOGUfkBoArqTWkegUX4-39" edge="1">
          <mxGeometry relative="1" as="geometry">
            <mxPoint x="1430" y="138" as="sourcePoint" />
          </mxGeometry>
        </mxCell>
        <mxCell id="GgOGUfkBoArqTWkegUX4-68" style="edgeStyle=none;rounded=0;orthogonalLoop=1;jettySize=auto;html=1;entryX=0;entryY=0;entryDx=0;entryDy=0;" parent="1" source="GgOGUfkBoArqTWkegUX4-38" target="GgOGUfkBoArqTWkegUX4-65" edge="1">
          <mxGeometry relative="1" as="geometry">
            <mxPoint x="1585" y="62.99999999999994" as="targetPoint" />
          </mxGeometry>
        </mxCell>
        <mxCell id="GgOGUfkBoArqTWkegUX4-38" value="31&lt;div&gt;&lt;span style=&quot;background-color: initial;&quot;&gt;30&amp;nbsp; &amp;nbsp; 30&lt;/span&gt;&lt;/div&gt;&lt;div&gt;&lt;br&gt;&lt;/div&gt;" style="shape=sumEllipse;perimeter=ellipsePerimeter;whiteSpace=wrap;html=1;backgroundOutline=1;strokeWidth=1;rotation=0;" parent="1" vertex="1">
          <mxGeometry x="1355" y="38" width="50" height="50" as="geometry" />
        </mxCell>
        <mxCell id="GgOGUfkBoArqTWkegUX4-39" value="33&lt;div&gt;30&amp;nbsp; &amp;nbsp; &amp;nbsp;30&lt;/div&gt;&lt;div&gt;&lt;br&gt;&lt;/div&gt;" style="shape=sumEllipse;perimeter=ellipsePerimeter;whiteSpace=wrap;html=1;backgroundOutline=1;strokeWidth=1;rotation=0;fillColor=#a20025;fontColor=#ffffff;strokeColor=#6F0000;" parent="1" vertex="1">
          <mxGeometry x="1465" y="288" width="50" height="50" as="geometry" />
        </mxCell>
        <mxCell id="GgOGUfkBoArqTWkegUX4-41" value="32&lt;div&gt;30&amp;nbsp; &amp;nbsp; &amp;nbsp;30&lt;/div&gt;&lt;div&gt;&lt;br&gt;&lt;/div&gt;" style="shape=sumEllipse;perimeter=ellipsePerimeter;whiteSpace=wrap;html=1;backgroundOutline=1;strokeWidth=1;rotation=0;" parent="1" vertex="1">
          <mxGeometry x="1455" y="158" width="50" height="50" as="geometry" />
        </mxCell>
        <mxCell id="GgOGUfkBoArqTWkegUX4-42" style="edgeStyle=none;rounded=0;orthogonalLoop=1;jettySize=auto;html=1;entryX=0;entryY=1;entryDx=0;entryDy=0;" parent="1" source="GgOGUfkBoArqTWkegUX4-32" target="GgOGUfkBoArqTWkegUX4-38" edge="1">
          <mxGeometry relative="1" as="geometry" />
        </mxCell>
        <mxCell id="GgOGUfkBoArqTWkegUX4-43" style="edgeStyle=none;rounded=0;orthogonalLoop=1;jettySize=auto;html=1;entryX=0;entryY=0.5;entryDx=0;entryDy=0;" parent="1" source="GgOGUfkBoArqTWkegUX4-32" target="GgOGUfkBoArqTWkegUX4-41" edge="1">
          <mxGeometry relative="1" as="geometry" />
        </mxCell>
        <mxCell id="GgOGUfkBoArqTWkegUX4-44" style="edgeStyle=none;rounded=0;orthogonalLoop=1;jettySize=auto;html=1;entryX=0.091;entryY=0.279;entryDx=0;entryDy=0;entryPerimeter=0;fillColor=#a20025;strokeColor=#6F0000;" parent="1" source="GgOGUfkBoArqTWkegUX4-32" target="GgOGUfkBoArqTWkegUX4-39" edge="1">
          <mxGeometry relative="1" as="geometry" />
        </mxCell>
        <mxCell id="GgOGUfkBoArqTWkegUX4-47" value="B11(3)/0" style="text;html=1;align=center;verticalAlign=middle;resizable=0;points=[];autosize=1;strokeColor=none;fillColor=none;" parent="1" vertex="1">
          <mxGeometry x="1325" y="110" width="70" height="30" as="geometry" />
        </mxCell>
        <mxCell id="GgOGUfkBoArqTWkegUX4-48" value="B12(3)/0" style="text;html=1;align=center;verticalAlign=middle;resizable=0;points=[];autosize=1;strokeColor=none;fillColor=none;" parent="1" vertex="1">
          <mxGeometry x="1340" y="248" width="70" height="30" as="geometry" />
        </mxCell>
        <mxCell id="GgOGUfkBoArqTWkegUX4-49" value="B13(3)/0" style="text;html=1;align=center;verticalAlign=middle;resizable=0;points=[];autosize=1;strokeColor=none;fillColor=none;" parent="1" vertex="1">
          <mxGeometry x="1340" y="176" width="70" height="30" as="geometry" />
        </mxCell>
        <mxCell id="GgOGUfkBoArqTWkegUX4-50" style="edgeStyle=none;rounded=0;orthogonalLoop=1;jettySize=auto;html=1;entryX=0.033;entryY=0.87;entryDx=0;entryDy=0;entryPerimeter=0;dashed=1;" parent="1" source="GgOGUfkBoArqTWkegUX4-35" target="GgOGUfkBoArqTWkegUX4-39" edge="1">
          <mxGeometry relative="1" as="geometry" />
        </mxCell>
        <mxCell id="GgOGUfkBoArqTWkegUX4-52" style="edgeStyle=none;rounded=0;orthogonalLoop=1;jettySize=auto;html=1;dashed=1;exitX=0.5;exitY=1;exitDx=0;exitDy=0;entryX=0.5;entryY=0;entryDx=0;entryDy=0;" parent="1" source="GgOGUfkBoArqTWkegUX4-41" target="GgOGUfkBoArqTWkegUX4-39" edge="1">
          <mxGeometry relative="1" as="geometry">
            <mxPoint x="1445" y="288" as="targetPoint" />
          </mxGeometry>
        </mxCell>
        <mxCell id="GgOGUfkBoArqTWkegUX4-53" value="39&lt;div&gt;31&amp;nbsp; &amp;nbsp; &amp;nbsp;31&lt;/div&gt;&lt;div&gt;&lt;br&gt;&lt;/div&gt;" style="shape=sumEllipse;perimeter=ellipsePerimeter;whiteSpace=wrap;html=1;backgroundOutline=1;strokeWidth=1;rotation=0;fillColor=#a20025;fontColor=#ffffff;strokeColor=#6F0000;" parent="1" vertex="1">
          <mxGeometry x="1495" y="398" width="50" height="50" as="geometry" />
        </mxCell>
        <mxCell id="GgOGUfkBoArqTWkegUX4-55" style="edgeStyle=none;rounded=0;orthogonalLoop=1;jettySize=auto;html=1;entryX=0.286;entryY=0.056;entryDx=0;entryDy=0;entryPerimeter=0;fillColor=#a20025;strokeColor=#6F0000;" parent="1" source="GgOGUfkBoArqTWkegUX4-39" target="GgOGUfkBoArqTWkegUX4-53" edge="1">
          <mxGeometry relative="1" as="geometry" />
        </mxCell>
        <mxCell id="GgOGUfkBoArqTWkegUX4-56" value="B14(1)/0" style="text;html=1;align=center;verticalAlign=middle;resizable=0;points=[];autosize=1;strokeColor=none;fillColor=none;" parent="1" vertex="1">
          <mxGeometry x="1430" y="368" width="70" height="30" as="geometry" />
        </mxCell>
        <mxCell id="GgOGUfkBoArqTWkegUX4-57" value="40&lt;div&gt;32&amp;nbsp; &amp;nbsp; &amp;nbsp;32&lt;/div&gt;&lt;div&gt;&lt;br&gt;&lt;/div&gt;" style="shape=sumEllipse;perimeter=ellipsePerimeter;whiteSpace=wrap;html=1;backgroundOutline=1;strokeWidth=1;rotation=0;fillColor=#a20025;fontColor=#ffffff;strokeColor=#6F0000;" parent="1" vertex="1">
          <mxGeometry x="1545" y="290" width="50" height="50" as="geometry" />
        </mxCell>
        <mxCell id="GgOGUfkBoArqTWkegUX4-60" style="edgeStyle=none;rounded=0;orthogonalLoop=1;jettySize=auto;html=1;entryX=0.149;entryY=0.983;entryDx=0;entryDy=0;entryPerimeter=0;fillColor=#a20025;strokeColor=#6F0000;" parent="1" source="GgOGUfkBoArqTWkegUX4-53" target="GgOGUfkBoArqTWkegUX4-57" edge="1">
          <mxGeometry relative="1" as="geometry" />
        </mxCell>
        <mxCell id="GgOGUfkBoArqTWkegUX4-61" value="B15(1)/0" style="text;html=1;align=center;verticalAlign=middle;resizable=0;points=[];autosize=1;strokeColor=none;fillColor=none;" parent="1" vertex="1">
          <mxGeometry x="1535" y="360" width="70" height="30" as="geometry" />
        </mxCell>
        <mxCell id="GgOGUfkBoArqTWkegUX4-66" style="edgeStyle=none;rounded=0;orthogonalLoop=1;jettySize=auto;html=1;fillColor=#a20025;strokeColor=#6F0000;" parent="1" source="GgOGUfkBoArqTWkegUX4-62" target="GgOGUfkBoArqTWkegUX4-65" edge="1">
          <mxGeometry relative="1" as="geometry" />
        </mxCell>
        <mxCell id="GgOGUfkBoArqTWkegUX4-62" value="41&lt;div&gt;35&amp;nbsp; &amp;nbsp; &amp;nbsp;35&lt;/div&gt;&lt;div&gt;&lt;br&gt;&lt;/div&gt;" style="shape=sumEllipse;perimeter=ellipsePerimeter;whiteSpace=wrap;html=1;backgroundOutline=1;strokeWidth=1;rotation=0;fillColor=#a20025;fontColor=#ffffff;strokeColor=#6F0000;" parent="1" vertex="1">
          <mxGeometry x="1670" y="288" width="50" height="50" as="geometry" />
        </mxCell>
        <mxCell id="GgOGUfkBoArqTWkegUX4-63" style="edgeStyle=none;rounded=0;orthogonalLoop=1;jettySize=auto;html=1;entryX=0;entryY=0.5;entryDx=0;entryDy=0;fillColor=#a20025;strokeColor=#6F0000;" parent="1" source="GgOGUfkBoArqTWkegUX4-57" target="GgOGUfkBoArqTWkegUX4-62" edge="1">
          <mxGeometry relative="1" as="geometry" />
        </mxCell>
        <mxCell id="GgOGUfkBoArqTWkegUX4-64" value="B16(3)/0" style="text;html=1;align=center;verticalAlign=middle;resizable=0;points=[];autosize=1;strokeColor=none;fillColor=none;" parent="1" vertex="1">
          <mxGeometry x="1590" y="288" width="70" height="30" as="geometry" />
        </mxCell>
        <mxCell id="GgOGUfkBoArqTWkegUX4-79" style="edgeStyle=none;rounded=0;orthogonalLoop=1;jettySize=auto;html=1;entryX=0;entryY=0.5;entryDx=0;entryDy=0;fillColor=#a20025;strokeColor=#6F0000;" parent="1" source="GgOGUfkBoArqTWkegUX4-65" target="GgOGUfkBoArqTWkegUX4-78" edge="1">
          <mxGeometry relative="1" as="geometry" />
        </mxCell>
        <mxCell id="GgOGUfkBoArqTWkegUX4-65" value="42&lt;div&gt;37&amp;nbsp; &amp;nbsp; &amp;nbsp;37&lt;/div&gt;&lt;div&gt;&lt;br&gt;&lt;/div&gt;" style="shape=sumEllipse;perimeter=ellipsePerimeter;whiteSpace=wrap;html=1;backgroundOutline=1;strokeWidth=1;rotation=0;fillColor=#a20025;fontColor=#ffffff;strokeColor=#6F0000;" parent="1" vertex="1">
          <mxGeometry x="1700" y="160" width="50" height="50" as="geometry" />
        </mxCell>
        <mxCell id="GgOGUfkBoArqTWkegUX4-70" style="edgeStyle=none;rounded=0;orthogonalLoop=1;jettySize=auto;html=1;entryX=0;entryY=0.5;entryDx=0;entryDy=0;exitX=1;exitY=0.5;exitDx=0;exitDy=0;" parent="1" source="GgOGUfkBoArqTWkegUX4-41" target="GgOGUfkBoArqTWkegUX4-65" edge="1">
          <mxGeometry relative="1" as="geometry">
            <mxPoint x="1580.0000000000005" y="183" as="targetPoint" />
          </mxGeometry>
        </mxCell>
        <mxCell id="GgOGUfkBoArqTWkegUX4-71" value="B18(2)/5" style="text;html=1;align=center;verticalAlign=middle;resizable=0;points=[];autosize=1;strokeColor=none;fillColor=none;" parent="1" vertex="1">
          <mxGeometry x="1475" y="68" width="70" height="30" as="geometry" />
        </mxCell>
        <mxCell id="GgOGUfkBoArqTWkegUX4-73" value="B17(2)/0" style="text;html=1;align=center;verticalAlign=middle;resizable=0;points=[];autosize=1;strokeColor=none;fillColor=none;" parent="1" vertex="1">
          <mxGeometry x="1705" y="240" width="70" height="30" as="geometry" />
        </mxCell>
        <mxCell id="GgOGUfkBoArqTWkegUX4-74" value="B19(2)/5" style="text;html=1;align=center;verticalAlign=middle;resizable=0;points=[];autosize=1;strokeColor=none;fillColor=none;" parent="1" vertex="1">
          <mxGeometry x="1500" y="156" width="70" height="30" as="geometry" />
        </mxCell>
        <mxCell id="GgOGUfkBoArqTWkegUX4-78" value="43&lt;div&gt;38&amp;nbsp; &amp;nbsp; &amp;nbsp;38&lt;/div&gt;&lt;div&gt;&lt;br&gt;&lt;/div&gt;" style="shape=sumEllipse;perimeter=ellipsePerimeter;whiteSpace=wrap;html=1;backgroundOutline=1;strokeWidth=1;rotation=0;fillColor=#a20025;fontColor=#ffffff;strokeColor=#6F0000;" parent="1" vertex="1">
          <mxGeometry x="1830" y="158" width="50" height="50" as="geometry" />
        </mxCell>
        <mxCell id="GgOGUfkBoArqTWkegUX4-80" value="B20(1)/0" style="text;html=1;align=center;verticalAlign=middle;resizable=0;points=[];autosize=1;strokeColor=none;fillColor=none;" parent="1" vertex="1">
          <mxGeometry x="1755" y="156" width="70" height="30" as="geometry" />
        </mxCell>
        <mxCell id="GgOGUfkBoArqTWkegUX4-81" value="44&lt;div&gt;40&amp;nbsp; &amp;nbsp; 40&lt;/div&gt;&lt;div&gt;&lt;br&gt;&lt;/div&gt;" style="shape=sumEllipse;perimeter=ellipsePerimeter;whiteSpace=wrap;html=1;backgroundOutline=1;strokeWidth=1;rotation=0;fillColor=#a20025;fontColor=#ffffff;strokeColor=#6F0000;" parent="1" vertex="1">
          <mxGeometry x="1850" y="38" width="50" height="50" as="geometry" />
        </mxCell>
        <mxCell id="GgOGUfkBoArqTWkegUX4-82" style="edgeStyle=none;rounded=0;orthogonalLoop=1;jettySize=auto;html=1;entryX=0.5;entryY=1;entryDx=0;entryDy=0;fillColor=#a20025;strokeColor=#6F0000;" parent="1" source="GgOGUfkBoArqTWkegUX4-78" target="GgOGUfkBoArqTWkegUX4-81" edge="1">
          <mxGeometry relative="1" as="geometry" />
        </mxCell>
        <mxCell id="GgOGUfkBoArqTWkegUX4-83" value="C1(2)/0" style="text;html=1;align=center;verticalAlign=middle;resizable=0;points=[];autosize=1;strokeColor=none;fillColor=none;" parent="1" vertex="1">
          <mxGeometry x="1815" y="98" width="60" height="30" as="geometry" />
        </mxCell>
        <mxCell id="GgOGUfkBoArqTWkegUX4-84" value="45&lt;div&gt;41&amp;nbsp; &amp;nbsp; &amp;nbsp;41&lt;/div&gt;&lt;div&gt;&lt;br&gt;&lt;/div&gt;" style="shape=sumEllipse;perimeter=ellipsePerimeter;whiteSpace=wrap;html=1;backgroundOutline=1;strokeWidth=1;rotation=0;fillColor=#a20025;fontColor=#ffffff;strokeColor=#6F0000;" parent="1" vertex="1">
          <mxGeometry x="1900" y="160" width="50" height="50" as="geometry" />
        </mxCell>
        <mxCell id="GgOGUfkBoArqTWkegUX4-85" style="edgeStyle=none;rounded=0;orthogonalLoop=1;jettySize=auto;html=1;entryX=0.296;entryY=0.063;entryDx=0;entryDy=0;entryPerimeter=0;fillColor=#a20025;strokeColor=#6F0000;" parent="1" source="GgOGUfkBoArqTWkegUX4-81" target="GgOGUfkBoArqTWkegUX4-84" edge="1">
          <mxGeometry relative="1" as="geometry" />
        </mxCell>
        <mxCell id="GgOGUfkBoArqTWkegUX4-86" value="C2(1)/0" style="text;html=1;align=center;verticalAlign=middle;resizable=0;points=[];autosize=1;strokeColor=none;fillColor=none;" parent="1" vertex="1">
          <mxGeometry x="1885" y="100" width="60" height="30" as="geometry" />
        </mxCell>
        <mxCell id="GgOGUfkBoArqTWkegUX4-87" value="46&lt;div&gt;46&amp;nbsp; &amp;nbsp; &amp;nbsp; 46&lt;/div&gt;&lt;div&gt;&lt;br&gt;&lt;/div&gt;" style="shape=sumEllipse;perimeter=ellipsePerimeter;whiteSpace=wrap;html=1;backgroundOutline=1;strokeWidth=1;rotation=0;fillColor=#a20025;fontColor=#ffffff;strokeColor=#6F0000;" parent="1" vertex="1">
          <mxGeometry x="1920" y="290" width="50" height="50" as="geometry" />
        </mxCell>
        <mxCell id="GgOGUfkBoArqTWkegUX4-88" style="edgeStyle=none;rounded=0;orthogonalLoop=1;jettySize=auto;html=1;entryX=0.5;entryY=0;entryDx=0;entryDy=0;fillColor=#a20025;strokeColor=#6F0000;" parent="1" source="GgOGUfkBoArqTWkegUX4-84" target="GgOGUfkBoArqTWkegUX4-87" edge="1">
          <mxGeometry relative="1" as="geometry" />
        </mxCell>
        <mxCell id="GgOGUfkBoArqTWkegUX4-89" value="C3(5)/0" style="text;html=1;align=center;verticalAlign=middle;resizable=0;points=[];autosize=1;strokeColor=none;fillColor=none;" parent="1" vertex="1">
          <mxGeometry x="1885" y="240" width="60" height="30" as="geometry" />
        </mxCell>
        <mxCell id="GgOGUfkBoArqTWkegUX4-90" value="47&lt;div&gt;47&amp;nbsp; &amp;nbsp; &amp;nbsp; 47&lt;/div&gt;&lt;div&gt;&lt;br&gt;&lt;/div&gt;" style="shape=sumEllipse;perimeter=ellipsePerimeter;whiteSpace=wrap;html=1;backgroundOutline=1;strokeWidth=1;rotation=0;fillColor=#a20025;fontColor=#ffffff;strokeColor=#6F0000;" parent="1" vertex="1">
          <mxGeometry x="1950" y="398" width="50" height="50" as="geometry" />
        </mxCell>
        <mxCell id="GgOGUfkBoArqTWkegUX4-91" style="edgeStyle=none;rounded=0;orthogonalLoop=1;jettySize=auto;html=1;entryX=0.271;entryY=-0.026;entryDx=0;entryDy=0;entryPerimeter=0;fillColor=#a20025;strokeColor=#6F0000;" parent="1" source="GgOGUfkBoArqTWkegUX4-87" target="GgOGUfkBoArqTWkegUX4-90" edge="1">
          <mxGeometry relative="1" as="geometry" />
        </mxCell>
        <mxCell id="GgOGUfkBoArqTWkegUX4-92" value="C4(1)/0" style="text;html=1;align=center;verticalAlign=middle;resizable=0;points=[];autosize=1;strokeColor=none;fillColor=none;" parent="1" vertex="1">
          <mxGeometry x="1905" y="350" width="60" height="30" as="geometry" />
        </mxCell>
        <mxCell id="GgOGUfkBoArqTWkegUX4-97" style="edgeStyle=none;rounded=0;orthogonalLoop=1;jettySize=auto;html=1;entryX=0.4;entryY=1.04;entryDx=0;entryDy=0;entryPerimeter=0;fillColor=#a20025;strokeColor=#6F0000;" parent="1" source="GgOGUfkBoArqTWkegUX4-93" target="GgOGUfkBoArqTWkegUX4-96" edge="1">
          <mxGeometry relative="1" as="geometry">
            <mxPoint x="2160" y="208" as="targetPoint" />
          </mxGeometry>
        </mxCell>
        <mxCell id="GgOGUfkBoArqTWkegUX4-93" value="50&lt;div&gt;48&amp;nbsp; &amp;nbsp; &amp;nbsp;48&lt;/div&gt;&lt;div&gt;&lt;br&gt;&lt;/div&gt;" style="shape=sumEllipse;perimeter=ellipsePerimeter;whiteSpace=wrap;html=1;backgroundOutline=1;strokeWidth=1;rotation=0;fillColor=#a20025;fontColor=#ffffff;strokeColor=#6F0000;" parent="1" vertex="1">
          <mxGeometry x="2000" y="288" width="50" height="50" as="geometry" />
        </mxCell>
        <mxCell id="GgOGUfkBoArqTWkegUX4-94" style="edgeStyle=none;rounded=0;orthogonalLoop=1;jettySize=auto;html=1;entryX=0.317;entryY=0.994;entryDx=0;entryDy=0;entryPerimeter=0;fillColor=#a20025;strokeColor=#6F0000;" parent="1" source="GgOGUfkBoArqTWkegUX4-90" target="GgOGUfkBoArqTWkegUX4-93" edge="1">
          <mxGeometry relative="1" as="geometry" />
        </mxCell>
        <mxCell id="GgOGUfkBoArqTWkegUX4-95" value="C5(1)/0" style="text;html=1;align=center;verticalAlign=middle;resizable=0;points=[];autosize=1;strokeColor=none;fillColor=none;" parent="1" vertex="1">
          <mxGeometry x="1995" y="360" width="60" height="30" as="geometry" />
        </mxCell>
        <mxCell id="GgOGUfkBoArqTWkegUX4-103" value="" style="edgeStyle=none;rounded=0;orthogonalLoop=1;jettySize=auto;html=1;fillColor=#a20025;strokeColor=#6F0000;" parent="1" source="GgOGUfkBoArqTWkegUX4-96" target="GgOGUfkBoArqTWkegUX4-102" edge="1">
          <mxGeometry relative="1" as="geometry" />
        </mxCell>
        <mxCell id="GgOGUfkBoArqTWkegUX4-96" value="51&lt;div&gt;50&amp;nbsp; &amp;nbsp; &amp;nbsp;50&lt;/div&gt;&lt;div&gt;&lt;br&gt;&lt;/div&gt;" style="shape=sumEllipse;perimeter=ellipsePerimeter;whiteSpace=wrap;html=1;backgroundOutline=1;strokeWidth=1;rotation=0;fillColor=#a20025;fontColor=#ffffff;strokeColor=#6F0000;" parent="1" vertex="1">
          <mxGeometry x="2040" y="160" width="50" height="50" as="geometry" />
        </mxCell>
        <mxCell id="GgOGUfkBoArqTWkegUX4-99" value="C6(2)/0" style="text;html=1;align=center;verticalAlign=middle;resizable=0;points=[];autosize=1;strokeColor=none;fillColor=none;" parent="1" vertex="1">
          <mxGeometry x="1995" y="228" width="60" height="30" as="geometry" />
        </mxCell>
        <mxCell id="GgOGUfkBoArqTWkegUX4-106" value="" style="edgeStyle=none;rounded=0;orthogonalLoop=1;jettySize=auto;html=1;fillColor=#a20025;strokeColor=#6F0000;" parent="1" source="GgOGUfkBoArqTWkegUX4-102" target="GgOGUfkBoArqTWkegUX4-105" edge="1">
          <mxGeometry relative="1" as="geometry" />
        </mxCell>
        <mxCell id="GgOGUfkBoArqTWkegUX4-102" value="52&lt;div&gt;51&amp;nbsp; &amp;nbsp; &amp;nbsp;51&lt;/div&gt;&lt;div&gt;&lt;br&gt;&lt;/div&gt;" style="shape=sumEllipse;perimeter=ellipsePerimeter;whiteSpace=wrap;html=1;backgroundOutline=1;strokeWidth=1;rotation=0;fillColor=#a20025;fontColor=#ffffff;strokeColor=#6F0000;" parent="1" vertex="1">
          <mxGeometry x="2070" y="38" width="50" height="50" as="geometry" />
        </mxCell>
        <mxCell id="GgOGUfkBoArqTWkegUX4-104" value="C7(1)/0" style="text;html=1;align=center;verticalAlign=middle;resizable=0;points=[];autosize=1;strokeColor=none;fillColor=none;" parent="1" vertex="1">
          <mxGeometry x="2020" y="98" width="60" height="30" as="geometry" />
        </mxCell>
        <mxCell id="GgOGUfkBoArqTWkegUX4-109" value="" style="edgeStyle=none;rounded=0;orthogonalLoop=1;jettySize=auto;html=1;fillColor=#a20025;strokeColor=#6F0000;" parent="1" source="GgOGUfkBoArqTWkegUX4-105" target="GgOGUfkBoArqTWkegUX4-108" edge="1">
          <mxGeometry relative="1" as="geometry" />
        </mxCell>
        <mxCell id="GgOGUfkBoArqTWkegUX4-105" value="53&lt;div&gt;54&amp;nbsp; &amp;nbsp; &amp;nbsp;54&lt;/div&gt;&lt;div&gt;&lt;br&gt;&lt;/div&gt;" style="shape=sumEllipse;perimeter=ellipsePerimeter;whiteSpace=wrap;html=1;backgroundOutline=1;strokeWidth=1;rotation=0;fillColor=#a20025;fontColor=#ffffff;strokeColor=#6F0000;" parent="1" vertex="1">
          <mxGeometry x="2110" y="160" width="50" height="50" as="geometry" />
        </mxCell>
        <mxCell id="GgOGUfkBoArqTWkegUX4-107" value="C8(3)/0" style="text;html=1;align=center;verticalAlign=middle;resizable=0;points=[];autosize=1;strokeColor=none;fillColor=none;" parent="1" vertex="1">
          <mxGeometry x="2115" y="110" width="60" height="30" as="geometry" />
        </mxCell>
        <mxCell id="GgOGUfkBoArqTWkegUX4-112" value="" style="edgeStyle=none;rounded=0;orthogonalLoop=1;jettySize=auto;html=1;fillColor=#a20025;strokeColor=#6F0000;" parent="1" source="GgOGUfkBoArqTWkegUX4-108" target="GgOGUfkBoArqTWkegUX4-111" edge="1">
          <mxGeometry relative="1" as="geometry" />
        </mxCell>
        <mxCell id="GgOGUfkBoArqTWkegUX4-108" value="54&lt;div&gt;56&amp;nbsp; &amp;nbsp; &amp;nbsp;56&lt;/div&gt;&lt;div&gt;&lt;br&gt;&lt;/div&gt;" style="shape=sumEllipse;perimeter=ellipsePerimeter;whiteSpace=wrap;html=1;backgroundOutline=1;strokeWidth=1;rotation=0;fillColor=#a20025;fontColor=#ffffff;strokeColor=#6F0000;" parent="1" vertex="1">
          <mxGeometry x="2120" y="290" width="50" height="50" as="geometry" />
        </mxCell>
        <mxCell id="GgOGUfkBoArqTWkegUX4-110" value="C9(2)/0" style="text;html=1;align=center;verticalAlign=middle;resizable=0;points=[];autosize=1;strokeColor=none;fillColor=none;" parent="1" vertex="1">
          <mxGeometry x="2135" y="238" width="60" height="30" as="geometry" />
        </mxCell>
        <mxCell id="GgOGUfkBoArqTWkegUX4-116" value="" style="edgeStyle=none;rounded=0;orthogonalLoop=1;jettySize=auto;html=1;" parent="1" source="GgOGUfkBoArqTWkegUX4-111" target="GgOGUfkBoArqTWkegUX4-115" edge="1">
          <mxGeometry relative="1" as="geometry" />
        </mxCell>
        <mxCell id="GgOGUfkBoArqTWkegUX4-123" value="" style="edgeStyle=none;rounded=0;orthogonalLoop=1;jettySize=auto;html=1;fillColor=#a20025;strokeColor=#6F0000;" parent="1" source="GgOGUfkBoArqTWkegUX4-111" target="GgOGUfkBoArqTWkegUX4-122" edge="1">
          <mxGeometry relative="1" as="geometry" />
        </mxCell>
        <mxCell id="GgOGUfkBoArqTWkegUX4-111" value="55&lt;div&gt;59&amp;nbsp; &amp;nbsp; &amp;nbsp;59&lt;/div&gt;&lt;div&gt;&lt;br&gt;&lt;/div&gt;" style="shape=sumEllipse;perimeter=ellipsePerimeter;whiteSpace=wrap;html=1;backgroundOutline=1;strokeWidth=1;rotation=0;fillColor=#a20025;fontColor=#ffffff;strokeColor=#6F0000;" parent="1" vertex="1">
          <mxGeometry x="2140" y="398" width="50" height="50" as="geometry" />
        </mxCell>
        <mxCell id="GgOGUfkBoArqTWkegUX4-113" value="C10(3)/0" style="text;html=1;align=center;verticalAlign=middle;resizable=0;points=[];autosize=1;strokeColor=none;fillColor=none;" parent="1" vertex="1">
          <mxGeometry x="2095" y="358" width="70" height="30" as="geometry" />
        </mxCell>
        <mxCell id="GgOGUfkBoArqTWkegUX4-115" value="56&lt;div&gt;62&amp;nbsp; &amp;nbsp; &amp;nbsp;62&lt;/div&gt;&lt;div&gt;&lt;br&gt;&lt;/div&gt;" style="shape=sumEllipse;perimeter=ellipsePerimeter;whiteSpace=wrap;html=1;backgroundOutline=1;strokeWidth=1;rotation=0;" parent="1" vertex="1">
          <mxGeometry x="2200" y="296" width="50" height="50" as="geometry" />
        </mxCell>
        <mxCell id="GgOGUfkBoArqTWkegUX4-117" value="C11(3)/0" style="text;html=1;align=center;verticalAlign=middle;resizable=0;points=[];autosize=1;strokeColor=none;fillColor=none;" parent="1" vertex="1">
          <mxGeometry x="2185" y="360" width="70" height="30" as="geometry" />
        </mxCell>
        <mxCell id="GgOGUfkBoArqTWkegUX4-128" value="" style="edgeStyle=none;rounded=0;orthogonalLoop=1;jettySize=auto;html=1;fillColor=#a20025;strokeColor=#6F0000;" parent="1" source="GgOGUfkBoArqTWkegUX4-122" target="GgOGUfkBoArqTWkegUX4-127" edge="1">
          <mxGeometry relative="1" as="geometry" />
        </mxCell>
        <mxCell id="GgOGUfkBoArqTWkegUX4-122" value="67&lt;div&gt;62&amp;nbsp; &amp;nbsp; &amp;nbsp;62&lt;/div&gt;&lt;div&gt;&lt;br&gt;&lt;/div&gt;" style="shape=sumEllipse;perimeter=ellipsePerimeter;whiteSpace=wrap;html=1;backgroundOutline=1;strokeWidth=1;rotation=0;fillColor=#a20025;fontColor=#ffffff;strokeColor=#6F0000;" parent="1" vertex="1">
          <mxGeometry x="2270" y="398" width="50" height="50" as="geometry" />
        </mxCell>
        <mxCell id="GgOGUfkBoArqTWkegUX4-124" value="C12(3)/0" style="text;html=1;align=center;verticalAlign=middle;resizable=0;points=[];autosize=1;strokeColor=none;fillColor=none;" parent="1" vertex="1">
          <mxGeometry x="2190" y="418" width="70" height="30" as="geometry" />
        </mxCell>
        <mxCell id="GgOGUfkBoArqTWkegUX4-126" style="edgeStyle=none;rounded=0;orthogonalLoop=1;jettySize=auto;html=1;entryX=0.218;entryY=0.049;entryDx=0;entryDy=0;entryPerimeter=0;dashed=1;" parent="1" source="GgOGUfkBoArqTWkegUX4-115" target="GgOGUfkBoArqTWkegUX4-122" edge="1">
          <mxGeometry relative="1" as="geometry" />
        </mxCell>
        <mxCell id="GgOGUfkBoArqTWkegUX4-131" value="" style="edgeStyle=none;rounded=0;orthogonalLoop=1;jettySize=auto;html=1;" parent="1" source="GgOGUfkBoArqTWkegUX4-127" target="GgOGUfkBoArqTWkegUX4-130" edge="1">
          <mxGeometry relative="1" as="geometry" />
        </mxCell>
        <mxCell id="GgOGUfkBoArqTWkegUX4-136" style="edgeStyle=none;rounded=0;orthogonalLoop=1;jettySize=auto;html=1;entryX=0;entryY=0.5;entryDx=0;entryDy=0;fillColor=#a20025;strokeColor=#6F0000;" parent="1" source="GgOGUfkBoArqTWkegUX4-127" target="GgOGUfkBoArqTWkegUX4-133" edge="1">
          <mxGeometry relative="1" as="geometry" />
        </mxCell>
        <mxCell id="GgOGUfkBoArqTWkegUX4-127" value="68&lt;div&gt;65&amp;nbsp; &amp;nbsp; &amp;nbsp;65&lt;/div&gt;&lt;div&gt;&lt;br&gt;&lt;/div&gt;" style="shape=sumEllipse;perimeter=ellipsePerimeter;whiteSpace=wrap;html=1;backgroundOutline=1;strokeWidth=1;rotation=0;fillColor=#a20025;fontColor=#ffffff;strokeColor=#6F0000;" parent="1" vertex="1">
          <mxGeometry x="2300" y="296" width="50" height="50" as="geometry" />
        </mxCell>
        <mxCell id="GgOGUfkBoArqTWkegUX4-129" value="C13(3)/0" style="text;html=1;align=center;verticalAlign=middle;resizable=0;points=[];autosize=1;strokeColor=none;fillColor=none;" parent="1" vertex="1">
          <mxGeometry x="2295" y="368" width="70" height="30" as="geometry" />
        </mxCell>
        <mxCell id="GgOGUfkBoArqTWkegUX4-130" value="69&lt;div&gt;67&amp;nbsp; &amp;nbsp; &amp;nbsp;67&lt;/div&gt;&lt;div&gt;&lt;br&gt;&lt;/div&gt;" style="shape=sumEllipse;perimeter=ellipsePerimeter;whiteSpace=wrap;html=1;backgroundOutline=1;strokeWidth=1;rotation=0;" parent="1" vertex="1">
          <mxGeometry x="2330" y="158" width="50" height="50" as="geometry" />
        </mxCell>
        <mxCell id="GgOGUfkBoArqTWkegUX4-132" value="C14(2)/0" style="text;html=1;align=center;verticalAlign=middle;resizable=0;points=[];autosize=1;strokeColor=none;fillColor=none;" parent="1" vertex="1">
          <mxGeometry x="2270" y="230" width="70" height="30" as="geometry" />
        </mxCell>
        <mxCell id="GgOGUfkBoArqTWkegUX4-139" value="" style="edgeStyle=none;rounded=0;orthogonalLoop=1;jettySize=auto;html=1;fillColor=#a20025;strokeColor=#6F0000;" parent="1" source="GgOGUfkBoArqTWkegUX4-133" target="GgOGUfkBoArqTWkegUX4-138" edge="1">
          <mxGeometry relative="1" as="geometry" />
        </mxCell>
        <mxCell id="GgOGUfkBoArqTWkegUX4-133" value="70&lt;div&gt;67&amp;nbsp; &amp;nbsp; &amp;nbsp; 67&lt;/div&gt;&lt;div&gt;&lt;br&gt;&lt;/div&gt;" style="shape=sumEllipse;perimeter=ellipsePerimeter;whiteSpace=wrap;html=1;backgroundOutline=1;strokeWidth=1;rotation=0;fillColor=#a20025;fontColor=#ffffff;strokeColor=#6F0000;" parent="1" vertex="1">
          <mxGeometry x="2420" y="296" width="50" height="50" as="geometry" />
        </mxCell>
        <mxCell id="GgOGUfkBoArqTWkegUX4-135" value="C15(2)/0" style="text;html=1;align=center;verticalAlign=middle;resizable=0;points=[];autosize=1;strokeColor=none;fillColor=none;" parent="1" vertex="1">
          <mxGeometry x="2345" y="296" width="70" height="30" as="geometry" />
        </mxCell>
        <mxCell id="GgOGUfkBoArqTWkegUX4-137" style="edgeStyle=none;rounded=0;orthogonalLoop=1;jettySize=auto;html=1;entryX=0.243;entryY=0.092;entryDx=0;entryDy=0;entryPerimeter=0;dashed=1;" parent="1" source="GgOGUfkBoArqTWkegUX4-130" target="GgOGUfkBoArqTWkegUX4-133" edge="1">
          <mxGeometry relative="1" as="geometry" />
        </mxCell>
        <mxCell id="GgOGUfkBoArqTWkegUX4-142" value="" style="edgeStyle=none;rounded=0;orthogonalLoop=1;jettySize=auto;html=1;fillColor=#a20025;strokeColor=#6F0000;" parent="1" source="GgOGUfkBoArqTWkegUX4-138" target="GgOGUfkBoArqTWkegUX4-141" edge="1">
          <mxGeometry relative="1" as="geometry" />
        </mxCell>
        <mxCell id="GgOGUfkBoArqTWkegUX4-138" value="71&lt;div&gt;68&amp;nbsp; &amp;nbsp; &amp;nbsp; 68&lt;/div&gt;&lt;div&gt;&lt;br&gt;&lt;/div&gt;" style="shape=sumEllipse;perimeter=ellipsePerimeter;whiteSpace=wrap;html=1;backgroundOutline=1;strokeWidth=1;rotation=0;fillColor=#a20025;fontColor=#ffffff;strokeColor=#6F0000;" parent="1" vertex="1">
          <mxGeometry x="2450" y="160" width="50" height="50" as="geometry" />
        </mxCell>
        <mxCell id="GgOGUfkBoArqTWkegUX4-140" value="D1(1)/0" style="text;html=1;align=center;verticalAlign=middle;resizable=0;points=[];autosize=1;strokeColor=none;fillColor=none;" parent="1" vertex="1">
          <mxGeometry x="2455" y="238" width="60" height="30" as="geometry" />
        </mxCell>
        <mxCell id="GgOGUfkBoArqTWkegUX4-145" value="" style="edgeStyle=none;rounded=0;orthogonalLoop=1;jettySize=auto;html=1;" parent="1" source="GgOGUfkBoArqTWkegUX4-141" target="GgOGUfkBoArqTWkegUX4-144" edge="1">
          <mxGeometry relative="1" as="geometry" />
        </mxCell>
        <mxCell id="GgOGUfkBoArqTWkegUX4-146" value="" style="edgeStyle=none;rounded=0;orthogonalLoop=1;jettySize=auto;html=1;fillColor=#a20025;strokeColor=#6F0000;" parent="1" source="GgOGUfkBoArqTWkegUX4-141" target="GgOGUfkBoArqTWkegUX4-144" edge="1">
          <mxGeometry relative="1" as="geometry" />
        </mxCell>
        <mxCell id="GgOGUfkBoArqTWkegUX4-149" value="" style="edgeStyle=none;rounded=0;orthogonalLoop=1;jettySize=auto;html=1;" parent="1" source="GgOGUfkBoArqTWkegUX4-141" target="GgOGUfkBoArqTWkegUX4-148" edge="1">
          <mxGeometry relative="1" as="geometry" />
        </mxCell>
        <mxCell id="GgOGUfkBoArqTWkegUX4-141" value="72&lt;div&gt;71&amp;nbsp; &amp;nbsp; &amp;nbsp;71&lt;/div&gt;&lt;div&gt;&lt;br&gt;&lt;/div&gt;" style="shape=sumEllipse;perimeter=ellipsePerimeter;whiteSpace=wrap;html=1;backgroundOutline=1;strokeWidth=1;rotation=0;fillColor=#a20025;fontColor=#ffffff;strokeColor=#6F0000;" parent="1" vertex="1">
          <mxGeometry x="2480" y="40" width="50" height="50" as="geometry" />
        </mxCell>
        <mxCell id="GgOGUfkBoArqTWkegUX4-143" value="D2(3)/0" style="text;html=1;align=center;verticalAlign=middle;resizable=0;points=[];autosize=1;strokeColor=none;fillColor=none;" parent="1" vertex="1">
          <mxGeometry x="2430" y="98" width="60" height="30" as="geometry" />
        </mxCell>
        <mxCell id="GgOGUfkBoArqTWkegUX4-154" value="" style="edgeStyle=none;rounded=0;orthogonalLoop=1;jettySize=auto;html=1;fillColor=#a20025;strokeColor=#6F0000;" parent="1" source="GgOGUfkBoArqTWkegUX4-144" target="GgOGUfkBoArqTWkegUX4-153" edge="1">
          <mxGeometry relative="1" as="geometry" />
        </mxCell>
        <mxCell id="GgOGUfkBoArqTWkegUX4-156" style="edgeStyle=none;rounded=0;orthogonalLoop=1;jettySize=auto;html=1;entryX=0;entryY=0;entryDx=0;entryDy=0;" parent="1" source="GgOGUfkBoArqTWkegUX4-144" target="GgOGUfkBoArqTWkegUX4-155" edge="1">
          <mxGeometry relative="1" as="geometry" />
        </mxCell>
        <mxCell id="GgOGUfkBoArqTWkegUX4-158" value="" style="edgeStyle=none;rounded=0;orthogonalLoop=1;jettySize=auto;html=1;" parent="1" source="GgOGUfkBoArqTWkegUX4-144" target="GgOGUfkBoArqTWkegUX4-157" edge="1">
          <mxGeometry relative="1" as="geometry" />
        </mxCell>
        <mxCell id="GgOGUfkBoArqTWkegUX4-144" value="73&lt;div&gt;73&amp;nbsp; &amp;nbsp; &amp;nbsp; 73&lt;/div&gt;&lt;div&gt;&lt;br&gt;&lt;/div&gt;" style="shape=sumEllipse;perimeter=ellipsePerimeter;whiteSpace=wrap;html=1;backgroundOutline=1;strokeWidth=1;rotation=0;fillColor=#a20025;fontColor=#ffffff;strokeColor=#6F0000;" parent="1" vertex="1">
          <mxGeometry x="2600" y="40" width="50" height="50" as="geometry" />
        </mxCell>
        <mxCell id="GgOGUfkBoArqTWkegUX4-152" style="edgeStyle=none;rounded=0;orthogonalLoop=1;jettySize=auto;html=1;dashed=1;" parent="1" source="GgOGUfkBoArqTWkegUX4-148" target="GgOGUfkBoArqTWkegUX4-144" edge="1">
          <mxGeometry relative="1" as="geometry" />
        </mxCell>
        <mxCell id="GgOGUfkBoArqTWkegUX4-148" value="74&lt;div&gt;72&amp;nbsp; &amp;nbsp; &amp;nbsp; 73&lt;/div&gt;&lt;div&gt;&lt;br&gt;&lt;/div&gt;" style="shape=sumEllipse;perimeter=ellipsePerimeter;whiteSpace=wrap;html=1;backgroundOutline=1;strokeWidth=1;rotation=0;" parent="1" vertex="1">
          <mxGeometry x="2530" y="168" width="50" height="50" as="geometry" />
        </mxCell>
        <mxCell id="GgOGUfkBoArqTWkegUX4-150" value="D3(2)/0" style="text;html=1;align=center;verticalAlign=middle;resizable=0;points=[];autosize=1;strokeColor=none;fillColor=none;" parent="1" vertex="1">
          <mxGeometry x="2525" y="38" width="60" height="30" as="geometry" />
        </mxCell>
        <mxCell id="GgOGUfkBoArqTWkegUX4-151" value="D4(1)/1" style="text;html=1;align=center;verticalAlign=middle;resizable=0;points=[];autosize=1;strokeColor=none;fillColor=none;" parent="1" vertex="1">
          <mxGeometry x="2520" y="100" width="60" height="30" as="geometry" />
        </mxCell>
        <mxCell id="GgOGUfkBoArqTWkegUX4-165" value="" style="edgeStyle=none;rounded=0;orthogonalLoop=1;jettySize=auto;html=1;fillColor=#a20025;strokeColor=#6F0000;" parent="1" source="GgOGUfkBoArqTWkegUX4-153" target="GgOGUfkBoArqTWkegUX4-164" edge="1">
          <mxGeometry relative="1" as="geometry" />
        </mxCell>
        <mxCell id="GgOGUfkBoArqTWkegUX4-153" value="77&lt;div&gt;74&amp;nbsp; &amp;nbsp; &amp;nbsp;74&lt;/div&gt;&lt;div&gt;&lt;br&gt;&lt;/div&gt;" style="shape=sumEllipse;perimeter=ellipsePerimeter;whiteSpace=wrap;html=1;backgroundOutline=1;strokeWidth=1;rotation=0;fillColor=#a20025;fontColor=#ffffff;strokeColor=#6F0000;" parent="1" vertex="1">
          <mxGeometry x="2730" y="40" width="50" height="50" as="geometry" />
        </mxCell>
        <mxCell id="GgOGUfkBoArqTWkegUX4-163" style="edgeStyle=none;rounded=0;orthogonalLoop=1;jettySize=auto;html=1;entryX=0.5;entryY=1;entryDx=0;entryDy=0;dashed=1;" parent="1" source="GgOGUfkBoArqTWkegUX4-155" target="GgOGUfkBoArqTWkegUX4-153" edge="1">
          <mxGeometry relative="1" as="geometry" />
        </mxCell>
        <mxCell id="GgOGUfkBoArqTWkegUX4-155" value="76&lt;div&gt;74&amp;nbsp; &amp;nbsp; &amp;nbsp; 74&lt;/div&gt;&lt;div&gt;&lt;br&gt;&lt;/div&gt;" style="shape=sumEllipse;perimeter=ellipsePerimeter;whiteSpace=wrap;html=1;backgroundOutline=1;strokeWidth=1;rotation=0;" parent="1" vertex="1">
          <mxGeometry x="2710" y="170" width="50" height="50" as="geometry" />
        </mxCell>
        <mxCell id="GgOGUfkBoArqTWkegUX4-157" value="75&lt;div&gt;74&amp;nbsp; &amp;nbsp; &amp;nbsp; 74&lt;/div&gt;&lt;div&gt;&lt;br&gt;&lt;/div&gt;" style="shape=sumEllipse;perimeter=ellipsePerimeter;whiteSpace=wrap;html=1;backgroundOutline=1;strokeWidth=1;rotation=0;" parent="1" vertex="1">
          <mxGeometry x="2620" y="170" width="50" height="50" as="geometry" />
        </mxCell>
        <mxCell id="GgOGUfkBoArqTWkegUX4-159" value="D5(1)/0" style="text;html=1;align=center;verticalAlign=middle;resizable=0;points=[];autosize=1;strokeColor=none;fillColor=none;" parent="1" vertex="1">
          <mxGeometry x="2645" y="38" width="60" height="30" as="geometry" />
        </mxCell>
        <mxCell id="GgOGUfkBoArqTWkegUX4-160" value="D6(1)/0" style="text;html=1;align=center;verticalAlign=middle;resizable=0;points=[];autosize=1;strokeColor=none;fillColor=none;" parent="1" vertex="1">
          <mxGeometry x="2665" y="98" width="60" height="30" as="geometry" />
        </mxCell>
        <mxCell id="GgOGUfkBoArqTWkegUX4-161" value="D7(1)/0" style="text;html=1;align=center;verticalAlign=middle;resizable=0;points=[];autosize=1;strokeColor=none;fillColor=none;" parent="1" vertex="1">
          <mxGeometry x="2585" y="126" width="60" height="30" as="geometry" />
        </mxCell>
        <mxCell id="GgOGUfkBoArqTWkegUX4-162" style="edgeStyle=none;rounded=0;orthogonalLoop=1;jettySize=auto;html=1;entryX=0.298;entryY=1.031;entryDx=0;entryDy=0;entryPerimeter=0;dashed=1;" parent="1" source="GgOGUfkBoArqTWkegUX4-157" target="GgOGUfkBoArqTWkegUX4-153" edge="1">
          <mxGeometry relative="1" as="geometry" />
        </mxCell>
        <mxCell id="GgOGUfkBoArqTWkegUX4-164" value="78&lt;div&gt;76&amp;nbsp; &amp;nbsp; &amp;nbsp;76&lt;/div&gt;&lt;div&gt;&lt;br&gt;&lt;/div&gt;" style="shape=sumEllipse;perimeter=ellipsePerimeter;whiteSpace=wrap;html=1;backgroundOutline=1;strokeWidth=1;rotation=0;fillColor=#a20025;fontColor=#ffffff;strokeColor=#6F0000;" parent="1" vertex="1">
          <mxGeometry x="2800" y="170" width="50" height="50" as="geometry" />
        </mxCell>
        <mxCell id="GgOGUfkBoArqTWkegUX4-166" value="D8(2)/0" style="text;html=1;align=center;verticalAlign=middle;resizable=0;points=[];autosize=1;strokeColor=none;fillColor=none;" parent="1" vertex="1">
          <mxGeometry x="2785" y="110" width="60" height="30" as="geometry" />
        </mxCell>
        <mxCell id="VdEsdSvq-l-vm87BedLw-6" value="" style="edgeStyle=none;rounded=0;orthogonalLoop=1;jettySize=auto;html=1;fillColor=#a20025;strokeColor=#6F0000;" parent="1" source="VdEsdSvq-l-vm87BedLw-1" target="VdEsdSvq-l-vm87BedLw-5" edge="1">
          <mxGeometry relative="1" as="geometry" />
        </mxCell>
        <mxCell id="VdEsdSvq-l-vm87BedLw-1" value="79&lt;div&gt;78&amp;nbsp; &amp;nbsp; &amp;nbsp; 78&lt;/div&gt;&lt;div&gt;&lt;br&gt;&lt;/div&gt;" style="shape=sumEllipse;perimeter=ellipsePerimeter;whiteSpace=wrap;html=1;backgroundOutline=1;strokeWidth=1;rotation=0;fillColor=#a20025;fontColor=#ffffff;strokeColor=#6F0000;" parent="1" vertex="1">
          <mxGeometry x="2840" y="296" width="50" height="50" as="geometry" />
        </mxCell>
        <mxCell id="VdEsdSvq-l-vm87BedLw-3" style="edgeStyle=none;rounded=0;orthogonalLoop=1;jettySize=auto;html=1;entryX=0.331;entryY=0.089;entryDx=0;entryDy=0;entryPerimeter=0;fillColor=#a20025;strokeColor=#6F0000;" parent="1" source="GgOGUfkBoArqTWkegUX4-164" target="VdEsdSvq-l-vm87BedLw-1" edge="1">
          <mxGeometry relative="1" as="geometry" />
        </mxCell>
        <mxCell id="VdEsdSvq-l-vm87BedLw-4" value="D9(2)/0" style="text;html=1;align=center;verticalAlign=middle;resizable=0;points=[];autosize=1;strokeColor=none;fillColor=none;" parent="1" vertex="1">
          <mxGeometry x="2835" y="238" width="60" height="30" as="geometry" />
        </mxCell>
        <mxCell id="VdEsdSvq-l-vm87BedLw-9" value="" style="edgeStyle=none;rounded=0;orthogonalLoop=1;jettySize=auto;html=1;fillColor=#a20025;strokeColor=#6F0000;" parent="1" source="VdEsdSvq-l-vm87BedLw-5" target="VdEsdSvq-l-vm87BedLw-8" edge="1">
          <mxGeometry relative="1" as="geometry" />
        </mxCell>
        <mxCell id="VdEsdSvq-l-vm87BedLw-5" value="80&lt;div&gt;81&amp;nbsp; &amp;nbsp; &amp;nbsp;81&lt;/div&gt;&lt;div&gt;&lt;br&gt;&lt;/div&gt;" style="shape=sumEllipse;perimeter=ellipsePerimeter;whiteSpace=wrap;html=1;backgroundOutline=1;strokeWidth=1;rotation=0;fillColor=#a20025;fontColor=#ffffff;strokeColor=#6F0000;" parent="1" vertex="1">
          <mxGeometry x="2880" y="398" width="50" height="50" as="geometry" />
        </mxCell>
        <mxCell id="VdEsdSvq-l-vm87BedLw-7" value="D10(3)/0" style="text;html=1;align=center;verticalAlign=middle;resizable=0;points=[];autosize=1;strokeColor=none;fillColor=none;" parent="1" vertex="1">
          <mxGeometry x="2815" y="360" width="70" height="30" as="geometry" />
        </mxCell>
        <mxCell id="VdEsdSvq-l-vm87BedLw-12" value="" style="edgeStyle=none;rounded=0;orthogonalLoop=1;jettySize=auto;html=1;fillColor=#a20025;strokeColor=#6F0000;" parent="1" source="VdEsdSvq-l-vm87BedLw-8" target="VdEsdSvq-l-vm87BedLw-11" edge="1">
          <mxGeometry relative="1" as="geometry" />
        </mxCell>
        <mxCell id="VdEsdSvq-l-vm87BedLw-8" value="81&lt;div&gt;83&amp;nbsp; &amp;nbsp; &amp;nbsp;83&lt;/div&gt;&lt;div&gt;&lt;br&gt;&lt;/div&gt;" style="shape=sumEllipse;perimeter=ellipsePerimeter;whiteSpace=wrap;html=1;backgroundOutline=1;strokeWidth=1;rotation=0;fillColor=#a20025;fontColor=#ffffff;strokeColor=#6F0000;" parent="1" vertex="1">
          <mxGeometry x="2930" y="296" width="50" height="50" as="geometry" />
        </mxCell>
        <mxCell id="VdEsdSvq-l-vm87BedLw-10" value="D11(2)/0" style="text;html=1;align=center;verticalAlign=middle;resizable=0;points=[];autosize=1;strokeColor=none;fillColor=none;" parent="1" vertex="1">
          <mxGeometry x="2925" y="360" width="70" height="30" as="geometry" />
        </mxCell>
        <mxCell id="VdEsdSvq-l-vm87BedLw-15" value="" style="edgeStyle=none;rounded=0;orthogonalLoop=1;jettySize=auto;html=1;fillColor=#a20025;strokeColor=#6F0000;" parent="1" source="VdEsdSvq-l-vm87BedLw-11" target="VdEsdSvq-l-vm87BedLw-14" edge="1">
          <mxGeometry relative="1" as="geometry" />
        </mxCell>
        <mxCell id="VdEsdSvq-l-vm87BedLw-18" value="" style="edgeStyle=none;rounded=0;orthogonalLoop=1;jettySize=auto;html=1;" parent="1" source="VdEsdSvq-l-vm87BedLw-11" target="VdEsdSvq-l-vm87BedLw-17" edge="1">
          <mxGeometry relative="1" as="geometry" />
        </mxCell>
        <mxCell id="VdEsdSvq-l-vm87BedLw-11" value="82&lt;div&gt;86&amp;nbsp; &amp;nbsp; &amp;nbsp;86&lt;/div&gt;&lt;div&gt;&lt;br&gt;&lt;/div&gt;" style="shape=sumEllipse;perimeter=ellipsePerimeter;whiteSpace=wrap;html=1;backgroundOutline=1;strokeWidth=1;rotation=0;fillColor=#a20025;fontColor=#ffffff;strokeColor=#6F0000;" parent="1" vertex="1">
          <mxGeometry x="2990" y="170" width="50" height="50" as="geometry" />
        </mxCell>
        <mxCell id="VdEsdSvq-l-vm87BedLw-13" value="D12(3)/0" style="text;html=1;align=center;verticalAlign=middle;resizable=0;points=[];autosize=1;strokeColor=none;fillColor=none;" parent="1" vertex="1">
          <mxGeometry x="2920" y="240" width="70" height="30" as="geometry" />
        </mxCell>
        <mxCell id="VdEsdSvq-l-vm87BedLw-21" value="" style="edgeStyle=none;rounded=0;orthogonalLoop=1;jettySize=auto;html=1;dashed=1;fillColor=#a20025;strokeColor=#6F0000;" parent="1" source="VdEsdSvq-l-vm87BedLw-14" target="VdEsdSvq-l-vm87BedLw-20" edge="1">
          <mxGeometry relative="1" as="geometry">
            <Array as="points" />
          </mxGeometry>
        </mxCell>
        <mxCell id="VdEsdSvq-l-vm87BedLw-14" value="83&lt;div&gt;88&amp;nbsp; &amp;nbsp; &amp;nbsp;88&lt;/div&gt;&lt;div&gt;&lt;br&gt;&lt;/div&gt;" style="shape=sumEllipse;perimeter=ellipsePerimeter;whiteSpace=wrap;html=1;backgroundOutline=1;strokeWidth=1;rotation=0;fillColor=#a20025;fontColor=#ffffff;strokeColor=#6F0000;" parent="1" vertex="1">
          <mxGeometry x="3040" y="38" width="50" height="50" as="geometry" />
        </mxCell>
        <mxCell id="VdEsdSvq-l-vm87BedLw-16" value="D13(2)/0" style="text;html=1;align=center;verticalAlign=middle;resizable=0;points=[];autosize=1;strokeColor=none;fillColor=none;" parent="1" vertex="1">
          <mxGeometry x="2970" y="110" width="70" height="30" as="geometry" />
        </mxCell>
        <mxCell id="VdEsdSvq-l-vm87BedLw-17" value="84&lt;div&gt;87&amp;nbsp; &amp;nbsp; &amp;nbsp;88&lt;/div&gt;&lt;div&gt;&lt;br&gt;&lt;/div&gt;" style="shape=sumEllipse;perimeter=ellipsePerimeter;whiteSpace=wrap;html=1;backgroundOutline=1;strokeWidth=1;rotation=0;" parent="1" vertex="1">
          <mxGeometry x="3040" y="300" width="50" height="50" as="geometry" />
        </mxCell>
        <mxCell id="VdEsdSvq-l-vm87BedLw-19" value="D14(1)/1" style="text;html=1;align=center;verticalAlign=middle;resizable=0;points=[];autosize=1;strokeColor=none;fillColor=none;" parent="1" vertex="1">
          <mxGeometry x="3030" y="238" width="70" height="30" as="geometry" />
        </mxCell>
        <mxCell id="VdEsdSvq-l-vm87BedLw-24" value="" style="edgeStyle=none;rounded=0;orthogonalLoop=1;jettySize=auto;html=1;fillColor=#a20025;strokeColor=#6F0000;" parent="1" source="VdEsdSvq-l-vm87BedLw-20" target="VdEsdSvq-l-vm87BedLw-23" edge="1">
          <mxGeometry relative="1" as="geometry" />
        </mxCell>
        <mxCell id="VdEsdSvq-l-vm87BedLw-26" value="" style="edgeStyle=none;rounded=0;orthogonalLoop=1;jettySize=auto;html=1;" parent="1" source="VdEsdSvq-l-vm87BedLw-20" target="VdEsdSvq-l-vm87BedLw-25" edge="1">
          <mxGeometry relative="1" as="geometry" />
        </mxCell>
        <mxCell id="VdEsdSvq-l-vm87BedLw-20" value="85&lt;div&gt;88&amp;nbsp; &amp;nbsp; &amp;nbsp;88&lt;/div&gt;&lt;div&gt;&lt;br&gt;&lt;/div&gt;" style="shape=sumEllipse;perimeter=ellipsePerimeter;whiteSpace=wrap;html=1;backgroundOutline=1;strokeWidth=1;rotation=0;fillColor=#a20025;fontColor=#ffffff;strokeColor=#6F0000;" parent="1" vertex="1">
          <mxGeometry x="3100" y="166" width="50" height="50" as="geometry" />
        </mxCell>
        <mxCell id="VdEsdSvq-l-vm87BedLw-22" style="edgeStyle=none;rounded=0;orthogonalLoop=1;jettySize=auto;html=1;entryX=0.2;entryY=1.061;entryDx=0;entryDy=0;entryPerimeter=0;dashed=1;" parent="1" source="VdEsdSvq-l-vm87BedLw-17" target="VdEsdSvq-l-vm87BedLw-20" edge="1">
          <mxGeometry relative="1" as="geometry" />
        </mxCell>
        <mxCell id="VdEsdSvq-l-vm87BedLw-31" value="" style="edgeStyle=none;rounded=0;orthogonalLoop=1;jettySize=auto;html=1;fillColor=#a20025;strokeColor=#6F0000;" parent="1" source="VdEsdSvq-l-vm87BedLw-23" target="VdEsdSvq-l-vm87BedLw-30" edge="1">
          <mxGeometry relative="1" as="geometry" />
        </mxCell>
        <mxCell id="VdEsdSvq-l-vm87BedLw-23" value="86&lt;div&gt;91&amp;nbsp; &amp;nbsp; &amp;nbsp;91&lt;/div&gt;&lt;div&gt;&lt;br&gt;&lt;/div&gt;" style="shape=sumEllipse;perimeter=ellipsePerimeter;whiteSpace=wrap;html=1;backgroundOutline=1;strokeWidth=1;rotation=0;fillColor=#a20025;fontColor=#ffffff;strokeColor=#6F0000;" parent="1" vertex="1">
          <mxGeometry x="3200" y="38" width="50" height="50" as="geometry" />
        </mxCell>
        <mxCell id="VdEsdSvq-l-vm87BedLw-29" style="edgeStyle=none;rounded=0;orthogonalLoop=1;jettySize=auto;html=1;entryX=0.5;entryY=1;entryDx=0;entryDy=0;dashed=1;" parent="1" source="VdEsdSvq-l-vm87BedLw-25" target="VdEsdSvq-l-vm87BedLw-23" edge="1">
          <mxGeometry relative="1" as="geometry" />
        </mxCell>
        <mxCell id="VdEsdSvq-l-vm87BedLw-25" value="87&lt;div&gt;91&amp;nbsp; &amp;nbsp; &amp;nbsp; 91&lt;/div&gt;&lt;div&gt;&lt;br&gt;&lt;/div&gt;" style="shape=sumEllipse;perimeter=ellipsePerimeter;whiteSpace=wrap;html=1;backgroundOutline=1;strokeWidth=1;rotation=0;" parent="1" vertex="1">
          <mxGeometry x="3140" y="300" width="50" height="50" as="geometry" />
        </mxCell>
        <mxCell id="VdEsdSvq-l-vm87BedLw-27" value="D15(3)/0" style="text;html=1;align=center;verticalAlign=middle;resizable=0;points=[];autosize=1;strokeColor=none;fillColor=none;" parent="1" vertex="1">
          <mxGeometry x="3115" y="96" width="70" height="30" as="geometry" />
        </mxCell>
        <mxCell id="VdEsdSvq-l-vm87BedLw-28" value="D16(3)/0" style="text;html=1;align=center;verticalAlign=middle;resizable=0;points=[];autosize=1;strokeColor=none;fillColor=none;" parent="1" vertex="1">
          <mxGeometry x="3130" y="220" width="70" height="30" as="geometry" />
        </mxCell>
        <mxCell id="VdEsdSvq-l-vm87BedLw-34" value="" style="edgeStyle=none;rounded=0;orthogonalLoop=1;jettySize=auto;html=1;fillColor=#a20025;strokeColor=#6F0000;" parent="1" source="VdEsdSvq-l-vm87BedLw-30" target="VdEsdSvq-l-vm87BedLw-33" edge="1">
          <mxGeometry relative="1" as="geometry" />
        </mxCell>
        <mxCell id="VdEsdSvq-l-vm87BedLw-30" value="88&lt;div&gt;94&amp;nbsp; &amp;nbsp; &amp;nbsp;94&lt;/div&gt;&lt;div&gt;&lt;br&gt;&lt;/div&gt;" style="shape=sumEllipse;perimeter=ellipsePerimeter;whiteSpace=wrap;html=1;backgroundOutline=1;strokeWidth=1;rotation=0;fillColor=#a20025;fontColor=#ffffff;strokeColor=#6F0000;" parent="1" vertex="1">
          <mxGeometry x="3255" y="170" width="50" height="50" as="geometry" />
        </mxCell>
        <mxCell id="VdEsdSvq-l-vm87BedLw-32" value="D17(3)/0" style="text;html=1;align=center;verticalAlign=middle;resizable=0;points=[];autosize=1;strokeColor=none;fillColor=none;" parent="1" vertex="1">
          <mxGeometry x="3245" y="110" width="70" height="30" as="geometry" />
        </mxCell>
        <mxCell id="VdEsdSvq-l-vm87BedLw-37" value="" style="edgeStyle=none;rounded=0;orthogonalLoop=1;jettySize=auto;html=1;fillColor=#a20025;strokeColor=#6F0000;" parent="1" source="VdEsdSvq-l-vm87BedLw-33" target="VdEsdSvq-l-vm87BedLw-36" edge="1">
          <mxGeometry relative="1" as="geometry" />
        </mxCell>
        <mxCell id="VdEsdSvq-l-vm87BedLw-33" value="89&lt;div&gt;96&amp;nbsp; &amp;nbsp; &amp;nbsp;96&lt;/div&gt;&lt;div&gt;&lt;br&gt;&lt;/div&gt;" style="shape=sumEllipse;perimeter=ellipsePerimeter;whiteSpace=wrap;html=1;backgroundOutline=1;strokeWidth=1;rotation=0;fillColor=#a20025;fontColor=#ffffff;strokeColor=#6F0000;" parent="1" vertex="1">
          <mxGeometry x="3310" y="300" width="50" height="50" as="geometry" />
        </mxCell>
        <mxCell id="VdEsdSvq-l-vm87BedLw-35" value="D18(2)/0" style="text;html=1;align=center;verticalAlign=middle;resizable=0;points=[];autosize=1;strokeColor=none;fillColor=none;" parent="1" vertex="1">
          <mxGeometry x="3235" y="258" width="70" height="30" as="geometry" />
        </mxCell>
        <mxCell id="VdEsdSvq-l-vm87BedLw-40" value="" style="edgeStyle=none;rounded=0;orthogonalLoop=1;jettySize=auto;html=1;fillColor=#a20025;strokeColor=#6F0000;" parent="1" source="VdEsdSvq-l-vm87BedLw-36" target="VdEsdSvq-l-vm87BedLw-39" edge="1">
          <mxGeometry relative="1" as="geometry" />
        </mxCell>
        <mxCell id="VdEsdSvq-l-vm87BedLw-36" value="90&lt;div&gt;97&amp;nbsp; &amp;nbsp; &amp;nbsp;97&lt;/div&gt;&lt;div&gt;&lt;br&gt;&lt;/div&gt;" style="shape=sumEllipse;perimeter=ellipsePerimeter;whiteSpace=wrap;html=1;backgroundOutline=1;strokeWidth=1;rotation=0;fillColor=#a20025;fontColor=#ffffff;strokeColor=#6F0000;" parent="1" vertex="1">
          <mxGeometry x="3350" y="398" width="50" height="50" as="geometry" />
        </mxCell>
        <mxCell id="VdEsdSvq-l-vm87BedLw-38" value="D19(1)/0" style="text;html=1;align=center;verticalAlign=middle;resizable=0;points=[];autosize=1;strokeColor=none;fillColor=none;" parent="1" vertex="1">
          <mxGeometry x="3285" y="368" width="70" height="30" as="geometry" />
        </mxCell>
        <mxCell id="VdEsdSvq-l-vm87BedLw-43" value="" style="edgeStyle=none;rounded=0;orthogonalLoop=1;jettySize=auto;html=1;fillColor=#a20025;strokeColor=#6F0000;" parent="1" source="VdEsdSvq-l-vm87BedLw-39" target="VdEsdSvq-l-vm87BedLw-42" edge="1">
          <mxGeometry relative="1" as="geometry" />
        </mxCell>
        <mxCell id="VdEsdSvq-l-vm87BedLw-39" value="91&lt;div&gt;98&amp;nbsp; &amp;nbsp; &amp;nbsp;98&lt;/div&gt;&lt;div&gt;&lt;br&gt;&lt;/div&gt;" style="shape=sumEllipse;perimeter=ellipsePerimeter;whiteSpace=wrap;html=1;backgroundOutline=1;strokeWidth=1;rotation=0;fillColor=#a20025;fontColor=#ffffff;strokeColor=#6F0000;" parent="1" vertex="1">
          <mxGeometry x="3410" y="298" width="50" height="50" as="geometry" />
        </mxCell>
        <mxCell id="VdEsdSvq-l-vm87BedLw-41" value="D20(1)/0" style="text;html=1;align=center;verticalAlign=middle;resizable=0;points=[];autosize=1;strokeColor=none;fillColor=none;" parent="1" vertex="1">
          <mxGeometry x="3395" y="376" width="70" height="30" as="geometry" />
        </mxCell>
        <mxCell id="VdEsdSvq-l-vm87BedLw-46" value="" style="edgeStyle=none;rounded=0;orthogonalLoop=1;jettySize=auto;html=1;" parent="1" source="VdEsdSvq-l-vm87BedLw-42" target="VdEsdSvq-l-vm87BedLw-45" edge="1">
          <mxGeometry relative="1" as="geometry" />
        </mxCell>
        <mxCell id="VdEsdSvq-l-vm87BedLw-50" value="" style="edgeStyle=none;rounded=0;orthogonalLoop=1;jettySize=auto;html=1;fillColor=#a20025;strokeColor=#6F0000;" parent="1" source="VdEsdSvq-l-vm87BedLw-42" edge="1">
          <mxGeometry relative="1" as="geometry">
            <mxPoint x="3590" y="195" as="targetPoint" />
          </mxGeometry>
        </mxCell>
        <mxCell id="VdEsdSvq-l-vm87BedLw-42" value="92&lt;div&gt;99&amp;nbsp; &amp;nbsp; &amp;nbsp;99&lt;/div&gt;&lt;div&gt;&lt;br&gt;&lt;/div&gt;" style="shape=sumEllipse;perimeter=ellipsePerimeter;whiteSpace=wrap;html=1;backgroundOutline=1;strokeWidth=1;rotation=0;fillColor=#a20025;fontColor=#ffffff;strokeColor=#6F0000;" parent="1" vertex="1">
          <mxGeometry x="3460" y="170" width="50" height="50" as="geometry" />
        </mxCell>
        <mxCell id="VdEsdSvq-l-vm87BedLw-44" value="D21(1)/0" style="text;html=1;align=center;verticalAlign=middle;resizable=0;points=[];autosize=1;strokeColor=none;fillColor=none;" parent="1" vertex="1">
          <mxGeometry x="3400" y="240" width="70" height="30" as="geometry" />
        </mxCell>
        <mxCell id="VdEsdSvq-l-vm87BedLw-51" style="edgeStyle=none;rounded=0;orthogonalLoop=1;jettySize=auto;html=1;dashed=1;" parent="1" source="VdEsdSvq-l-vm87BedLw-45" target="VdEsdSvq-l-vm87BedLw-49" edge="1">
          <mxGeometry relative="1" as="geometry" />
        </mxCell>
        <mxCell id="VdEsdSvq-l-vm87BedLw-45" value="93&lt;div&gt;100&amp;nbsp; 100&lt;/div&gt;&lt;div&gt;&lt;br&gt;&lt;/div&gt;" style="shape=sumEllipse;perimeter=ellipsePerimeter;whiteSpace=wrap;html=1;backgroundOutline=1;strokeWidth=1;rotation=0;" parent="1" vertex="1">
          <mxGeometry x="3510" y="38" width="50" height="50" as="geometry" />
        </mxCell>
        <mxCell id="VdEsdSvq-l-vm87BedLw-49" value="94&lt;div&gt;100&amp;nbsp; 100&lt;/div&gt;&lt;div&gt;&lt;br&gt;&lt;/div&gt;" style="shape=sumEllipse;perimeter=ellipsePerimeter;whiteSpace=wrap;html=1;backgroundOutline=1;strokeWidth=1;rotation=0;fillColor=#a20025;fontColor=#ffffff;strokeColor=#6F0000;" parent="1" vertex="1">
          <mxGeometry x="3590" y="170" width="50" height="50" as="geometry" />
        </mxCell>
        <mxCell id="VdEsdSvq-l-vm87BedLw-52" value="E1(1)/0" style="text;html=1;align=center;verticalAlign=middle;resizable=0;points=[];autosize=1;strokeColor=none;fillColor=none;" parent="1" vertex="1">
          <mxGeometry x="3440" y="108" width="60" height="30" as="geometry" />
        </mxCell>
        <mxCell id="VdEsdSvq-l-vm87BedLw-53" value="E2(1)/0" style="text;html=1;align=center;verticalAlign=middle;resizable=0;points=[];autosize=1;strokeColor=none;fillColor=none;" parent="1" vertex="1">
          <mxGeometry x="3515" y="198" width="60" height="30" as="geometry" />
        </mxCell>
        <mxCell id="VdEsdSvq-l-vm87BedLw-55" value="1" style="text;html=1;align=center;verticalAlign=middle;resizable=0;points=[];autosize=1;strokeColor=none;fillColor=none;" parent="1" vertex="1">
          <mxGeometry x="90" y="328" width="30" height="30" as="geometry" />
        </mxCell>
      </root>
    </mxGraphModel>
  </diagram>
</mxfile>
